/* XPM */
static char *aa2yc_mgkrx[] = {
/* columns rows colors chars-per-pixel */
"50 50 16 1 ",
"  c None",
". c #352C2E",
"X c #743F39",
"o c #265C42",
"O c #3A4466",
"+ c #E52E38",
"@ c #F77622",
"# c #F6757A",
"$ c #3E8948",
"% c #63C74D",
"& c #C28569",
"* c #B55088",
"= c #8B9BB4",
"- c #EAD4AA",
"; c #C0CBDC",
": c white",
/* pixels */
"                                                  ",
"                    ..............                ",
"                  ......OOOOOOOO...               ",
"                 .....OOOOOO..O&#X..              ",
"                 .....OOO......+#*..              ",
"                 ..........&&&XXXO..              ",
"                 .X*....&-----&XOO..              ",
"                ..X-&&&&-------XOO...             ",
"               ...X------------XOO...             ",
"               ...X---------&--XOO...             ",
"               ...X&&&---&&&.-&XOO...             ",
"               ...O=.X---..==&*.OO...             ",
"               ...=;.X--&..;;=&X.O...             ",
"               ...=:=*---*=::-&X.O...             ",
"               ...=:-#---#-::-&X.....             ",
"               ...=:-------::-&*X....   ...       ",
"               ..OX-;;&&&;;;-###X....  XXXX       ",
"           XXX ..OOooooooo..-###XO... .&---.      ",
"          .X&X.  .O$%%%%$%o.---XOO... .&---.      ",
"          .X&X. ..Oo$$$$o$o.--XOOO... .&---.      ",
"          .X&*....O...OXXOO&X..OO......&---.      ",
"          .X&&XXX.O.X*:--::#XX.OO..XXXX&---.      ",
"           .X&XXX.O.X**:::##X..O.XXXXXXX&--.      ",
"            ..XXX...X*.#####X..+XXXXXXXX&..       ",
"            ..XXXX+.XX######X.+@XXXXXXX..         ",
"            ..XXXX+.X%%%%%%%X.+@XXXXXXX..         ",
"            .....X+.X++:::++X.+@X.........        ",
"                .X+.X++###++X.+@X...........      ",
"                 X#==::+++::X.+@X...........      ",
"                 X#==:-####&*X+@X..........       ",
"                 XXO=::######+*XX.........        ",
"                 ...X-:########X. .....           ",
"                ..X&&&:-#######&X. ....           ",
"               .X&&--&-:-#######+X.  .            ",
"             ..X&-----&-:-#######+X.              ",
"            ...&------&&;:-#######*.              ",
"       .... ...&-----&&X.;:-#####-*...            ",
"      .=;$.....X&--&&..X.X=:-----:=....           ",
"      .=:;$.....X&&.XXX*.&X;;;;;;;=....           ",
"      ..=:;.........****XX&XXX..........          ",
"       ..==.........*****.X&&&X.........          ",
"        ........    .****X.*&&X.........          ",
"         .......     .****.............OO         ",
"          .....       ................O==.        ",
"           ...                       .O=O.        ",
"                                      ...         ",
"                                                  ",
"                                                  ",
"                                                  ",
"                                                  "
};
