/* XPM */
static char *aqynn_g1170[] = {
/* columns rows colors chars-per-pixel */
"50 50 16 1 ",
"  c None",
". c #352C2E",
"X c #743F39",
"o c #265C42",
"O c #3A4466",
"+ c #E52E38",
"@ c #F77622",
"# c #F6757A",
"$ c #3E8948",
"% c #63C74D",
"& c #C28569",
"* c #B55088",
"= c #8B9BB4",
"- c #EAD4AA",
"; c #C0CBDC",
": c white",
/* pixels */
"                    ..............                ",
"                  ......OOOOOOOO...               ",
"                 .....OOOOOO..O&#X..              ",
"                 .....OOO......+#*..              ",
"                 ..........&-&XXXO..              ",
"                 .X*....&&&---&XOO..              ",
"               ...X------------XOO...             ",
"               ...X------------XOO...             ",
"               ...X---------&--XOO...             ",
"               ...X&&&---&&&.-&XOO...             ",
"               ...O=.X---..==&*.OO...             ",
"               ...=;.X--&..;;=&X.O...             ",
"               ...=:;&---*;::-&X.O...             ",
"               ...=:-#---#-::-&X.....             ",
"               ...=:-------::-&*X.....            ",
"               ..OX&;;**&;;;-###X.....  ...       ",
"               ..OOooooooo..-###XO.... XXXX       ",
"           XXX   .O$%%%%$%o.---XOO.....&---.      ",
"          .X&X.  .Oo$$$$o$oX&-XOOO.....&---.      ",
"          .X&X. ..O...OXXOO&X..OO......&---.      ",
"          .X&*....O.X*:--::#XX.OOXXXXXX&---.      ",
"          .X&&XXX.O.X**:::##X..O.XXXXXX&---.      ",
"          .X&&XXX...X*.#####X..+XXXXXXXX&--.      ",
"           ...XXXX+.XX######X.+@XXXXXXXX&..       ",
"            ..XXXX+.X%%%%%%%X.+@XXXXXXX..         ",
"            ..XXXX+.X++:::#+X.+@XXXXXXX..         ",
"            ..XX.X+.X++###++X.+@X..XXXX..         ",
"       .... .....X+O=::+++::X.+@X.........        ",
"       .OO..     X+O=######&*X+@X..........       ",
"       .==O.   ...XO=########+*+X.. ........      ",
"       .==O.. ..X&XO=*########+*X..  .......      ",
"       .O=O.....X&&O==##########XX.........       ",
"        .=O......X&XO=&#########-=......          ",
"        .OO......X&&XO=--#####--:=........        ",
"        ..........XXX.O=:-----:--&X....=;;.       ",
"        ...........XXXXX;;--------&...$;::=.      ",
"        ........  XX****XXXX&-----&...=;::;.      ",
"        .....      .XX****XX&-----X... =;;=.      ",
"                    ..XXXXXX.&&&&&X..   ...       ",
"                      ...... ......               ",
"                                                  ",
"                                                  ",
"                                                  ",
"                                                  ",
"                                                  ",
"                                                  ",
"                                                  ",
"                                                  ",
"                                                  ",
"                                                  "
};
