/* XPM */
static char *akc5l_97hkc[] = {
/* columns rows colors chars-per-pixel */
"50 50 16 1 ",
"  c None",
". c #352C2E",
"X c #743F39",
"o c #265C42",
"O c #3A4466",
"+ c #E52E38",
"@ c #F77622",
"# c #F6757A",
"$ c #3E8948",
"% c #63C74D",
"& c #C28569",
"* c #B55088",
"= c #8B9BB4",
"- c #EAD4AA",
"; c #C0CBDC",
": c white",
/* pixels */
"                                                  ",
"                                                  ",
"                    ..............                ",
"                  ......OOOOOOOO...               ",
"                 .....OOOOOO..O&&X..              ",
"                 .....OOO......+#*..              ",
"                 ..........&-&XXXO..              ",
"                 .XX....&&&---&XOO..              ",
"                ..X-&&&&-------XOO...             ",
"               ...X------------XOO...             ",
"               ...X---------&--XOO...             ",
"               ...X&&&---&&&.-&XOO...             ",
"               ...O=.X---..==&*.OO...             ",
"               ...$;.X--&..;;=&X.O...             ",
"               ...=:=*---*=::-&X.O....            ",
"               ...=:-#---#-::-&X......            ",
"               ...=:##---##::-&XX.....            ",
"               ..OX-;;&&&;;;-###X.....            ",
"               ..OOooooooo..-###XO....  ..        ",
"                 .O$%%%%$%o.---XOO.... XXXX       ",
"           .X.   .Oo$$$$o$o.--XOOO.....&---.      ",
"          .X&X. ..O...OXXOO&X..OO......&---.      ",
"          .X&X....O X*:--::#XX.OO..XXXX&---.      ",
"          .X&&XXX.O.X**:::##X..O.XXXXXX&---.      ",
"          .X&&XXX...X*.#####X..+XXXXXXX&---.      ",
"          .X&&XXXX+.XX######X.+@XXXXXXX&---.      ",
"           ..XXXXX+.X%%%%%%%X.+@XXXXXXXX&XX       ",
"             ....X+.X++:::++X.+@X..........       ",
"                .X+.X++###++X.+@X.........        ",
"                 X+.=:-+++-:X.+@X........         ",
"                 X+O=--####&*X+@X.....            ",
"                 XXO=########+*XX.......          ",
"                 ..O=#########&X.  .....          ",
"                 ..O=&#########X.                 ",
"                 ..O==#########&X                 ",
"                 ...O=&#########-=                ",
"                 ....O=--#####--:=.               ",
"                 ...XXO;:-----:;;=                ",
"                 ..X&&XX;;;;;;;X..                ",
"                 ..X&&&&..&&&&X...                ",
"                 ..X&&&&..----X...                ",
"                  .X&&&&..----X...                ",
"                  .X&&&&..----X...                ",
"                   .&&&&..&---X...                ",
"                    .&&&...---X..                 ",
"                     ...  .......                 ",
"                     ...   .....                  ",
"                 ....... .......                  ",
"                 O===....:::X...                  ",
"                 ...............                  "
};
