/* XPM */
static char *b3b6a178d1984b2d9a0ac4be120710ccOrICqma8ewuHy6Fu[] = {
/* columns rows colors chars-per-pixel */
"63 50 127 2 ",
"   c #0F0E14",
".  c #100F15",
"X  c #121117",
"o  c #151319",
"O  c #19161D",
"+  c #1A191E",
"@  c #380B0E",
"#  c #2C0F11",
"$  c #340F11",
"%  c #3E0D11",
"&  c #251212",
"*  c #2C1515",
"=  c #201B1F",
"-  c #2E1A1A",
";  c #321315",
":  c #3B1315",
">  c #341817",
",  c #371718",
"<  c #3A1619",
"1  c #341A1B",
"2  c #3B1B1C",
"3  c #1D1B21",
"4  c #211E23",
"5  c #331F20",
"6  c #3D1F21",
"7  c #232126",
"8  c #282327",
"9  c #252329",
"0  c #2A252B",
"q  c #242B2D",
"w  c #2C292E",
"e  c #342322",
"r  c #3D2425",
"t  c #372825",
"y  c #312C2E",
"u  c #3A2B2A",
"i  c #32312E",
"p  c #2E2D31",
"a  c #322D32",
"s  c #382F34",
"d  c #2C3231",
"f  c #353134",
"g  c #3A3436",
"h  c #393937",
"j  c #363439",
"k  c #3B3639",
"l  c #3D393C",
"z  c #421116",
"x  c #43161A",
"c  c #4A171C",
"v  c #431A1E",
"b  c #4B181D",
"n  c #421D22",
"m  c #4A1D21",
"M  c #412426",
"N  c #442C2C",
"B  c #482A28",
"V  c #4C2E30",
"C  c #433434",
"Z  c #4B3534",
"A  c #423937",
"S  c #44373A",
"D  c #423B3D",
"F  c #4B3C3D",
"G  c #523336",
"H  c #543638",
"J  c #44413F",
"K  c #3E3E40",
"L  c #443E41",
"P  c #483F42",
"I  c #454243",
"U  c #4A4445",
"Y  c #4A4947",
"T  c #4C4649",
"R  c #4E494B",
"E  c #524342",
"W  c #50474A",
"Q  c #524B4C",
"!  c #55504E",
"~  c #554E50",
"^  c #584F51",
"/  c #555253",
"(  c #5A5355",
")  c #5B5758",
"_  c #5E595B",
"`  c #634E4D",
"'  c #60575A",
"]  c #625C5D",
"[  c #6A5E5E",
"{  c #665D60",
"}  c #656261",
"|  c #6B6467",
" . c #7C6464",
".. c #7D6867",
"X. c #726D6F",
"o. c #736F70",
"O. c #7B7375",
"+. c #7D7A79",
"@. c #8C7474",
"#. c #807876",
"$. c #817C7C",
"%. c #967E7E",
"&. c #8A8484",
"*. c #928283",
"=. c #9F8586",
"-. c #9B9594",
";. c #A59C9B",
":. c #A3A2A0",
">. c #ADA9A6",
",. c #AEAAA9",
"<. c #B4A4A4",
"1. c #B4ABAB",
"2. c #BBB3B3",
"3. c #BDB9B6",
"4. c #C5B7B6",
"5. c #C4B9B9",
"6. c #CBBDBC",
"7. c #C7C3C2",
"8. c #CAC3C2",
"9. c #D3C1C2",
"0. c #D4CACB",
"q. c #DECBCC",
"w. c #D5CFD1",
"e. c #DAD4D2",
"r. c #E3DCD9",
"t. c #E4E2E0",
"y. c #E9E5E4",
/* pixels */
"X X X X .   .   X X X . X o o + X X o o o o + o X X X o X o o o o X o o o o o o o o o o o o o o o o o X o X X o o o X X X X X ",
"X X X . X X X X o X o X o o o o o o o o o o o o X X o o o o o o O O o o o o O O o o o o o o o o o o o X X o X X X o X X X X o ",
"X X . X X X X X X X X X X o o o o o o o o X X X o o o o + o + o O O O 3 O O O O o o o o o o X X o o o o o X o X X o o X o X o ",
". . . X X X X X X X X o o o o o X X o o o o X X o o o + o + o + O 3 3 3 3 3 O O o o o o o o o o o o X X X o X o X X o o o o X ",
"X     X X X X X X . X X o o o o X X o o + o o + o o + + + + + o 3 3 3 3 3 3 O O o O o o o o X X X o X o o o X o X o o o o o X ",
"X X X X . X X X . X o o o o o o o o o o + + + 3 + + + + + 3 + 3 3 3 9 3 3 3 3 O O O O o o o X X o X o X X o o o o o o o o o o ",
"X   X   X X X . . X o o o o o o o + + + + 3 3 3 + + 3 3 q 3 q + 4 4 4 9 9 4 3 3 O O O O o o o X X X X o X o o X o o o X o o o ",
"X X X X X   X   . X o o o o o o + + + + 3 3 3 3 = q 3 7 3 3 3 q 9 9 9 9 9 9 4 3 3 O O O O o o o X X o X o o o o o o o o X o o ",
"o X X X X X X .   . . X X + o o + + + + + 7 7 7 = 3 8 7 7 8 8 w p 9 9 9 0 9 9 7 3 4 4 4 = + = + O O O O o o o O o o o o o o o ",
"X X X X X X . .   . X X o o o + + 3 4 = 3 7 0 7 = q 8 8 q q w d p 9 9 9 9 9 4 4 7 7 4 4 4 + 3 = O O O o o o o O O o o o o o o ",
"X X   . X X . . . . . X X o + + 4 4 = = 4 8 8 8 q 8 8 8 w w i f K w w 0 0 0 7 4 9 8 8 4 4 4 = O O o o o X X o o o o o o o o o ",
"X X . . X X . . . . . X X X + O = 4 = = = 8 0 8 i 8 i i y y f g s s a w w a 0 0 4 4 4 7 4 = O O O o o . X X X X X X X X X X X ",
"X X X X X o X X . X X X o O 3 + = = = 4 7 0 w y s a s j k f f k a a a 0 p p a 8 4 4 0 0 0 4 4 O o o o o o . X X X X X X X X X ",
"o X X X o o o o X X X X o O 3 3 4 8 8 8 0 w y a j j k L D k k l K j s a a f s p y 0 w a p w 4 + O O o o X o X X X X X X X o o ",
"X X X X o o o o o o X o O O 3 3 8 0 t w w f s a k k L L U k k L L L L s j K k a s a a a a y 0 7 O O O O o o o X o X X X X o o ",
"X X X X o X X X o o o o O 3 3 7 q w w p f j f f k k S W P S S F F P S S s S k s D k a a p w 0 9 O O O O O o o X X X X X X o o ",
"X X X o X X X X o o X O 3 3 7 q 7 q q q d d f i h J N Z Z : v n n 6 B Z Z C Z h A h i i p p q 9 3 3 X X 3 3 O .   X X X X X X ",
"X X X X X X X X X X X o o 3 3 9 q q q d d d f i J F r , : @ c c x : v B B Z J J J i i i p p 0 9 9 3 3 3 o O X   X X   X X   X ",
"X X X X X X X   X X X o O 3 3 9 q q q d j h g g E J M ; $ z b z x : 2 2 t Z J J Y J h d p p p q 9 3 3 o 3 o .   X X   X X   X ",
"X X X X X X X X o o o o O 3 3 9 p p d j h l A g F N , : : x b % m 2 2 > - u J ` ! Y K h p a p w q 3 3 3 3 3 O X X X X X X X X ",
"  . X X X X X X X X o O 3 3 4 4 w p w s k S S S P 5 # ; : v m m < , 2 > * t J ! J J h w w d w 0 4 4 3 3 3 O O O X X X X X   X ",
"      . X X X X . X o o 3 3 4 9 0 0 a s s k g S F * * 6 2 n v v $ ; > * & e F U K h h d d w w q q 9 9 3 3 O O O X X X X X     ",
"    X X   X X X   X o o 3 3 9 9 0 y s s s s S S C # 5 r n B G G H Z V e - t F J Y J l f w f p w q 9 9 3 3 3 O o o X X X X X X ",
"        X X X X X X o 3 3 9 9 9 y s S S S k S L W y F H P @.%.=.@. .` Z u A Q Q ! R J f i w w 9 9 9 q 3 3 3 O O X . X X X     ",
"    . . . X X . X o 3 3 3 7 0 p a a f j k D l h U Q +.-.2.4.9.q.9.q.9.*.{ Q ' S P P P K a 0 0 p 4 9 9 9 3 O O O X X X X X X X ",
"    . X X X . X X X X 3 3 3 9 w p d f j l K K j I #.y.e.r.;.1.1.4.<.0.6.4.{ ( P K L L K K K a 0 9 9 9 9 3 o o o X X X X X   X ",
". X X X X X X X   X X o 3 3 q q w p d h j K K K I Y +.-.3.>.3.r.5.8.w.w.;.[ P L K L P P K a a 0 q 9 3 3 O O o o . o X X X X X ",
"X X o o o X o X X o 3 3 3 q q q q p j j l K I T h I Y } :.t.e.8.w.r.7.-.^ ^ P W L ~ ^ P K s K a K 9 3 3 O O o . X X X X X X X ",
"o o o O o O o o o 3 3 3 3 9 9 0 w p a f k L I R / ( ] a } $.>.8.,.&.+.T L K P L P ~ ~ L K a a a K K 9 3 3 O o . o . o o . o o ",
"o o o o O O o O 3 3 3 3 3 3 9 9 p a a j j k U R Q Q ) ( ) R $.t.$._ } / / / ~ P K K L K a p a p 9 q 3 3 3 O o X o . o X o o . ",
"o o o o O O O o 3 3 3 3 7 9 9 p f a a k k L D P I ( E Q I ' O.w._ ) | ) P _ P P K P K K p 0 p p 9 3 3 3 3 O o X o o o . o o o ",
"X X X o o o O O 3 3 3 3 4 q p a k a f k L S k S Q W ( Q ' U o.0.o.T X.R | / / ) P P P L p K 0 q 9 3 3 3 O o o X o o o o o o o ",
"o o o o o + o o o + + q 3 q q K i i i f A D D D ( ' ~ W ' ^ { 2.{ ^ ^ _ _ ~ Q ~ ~ I K y 4 4 4 4 3 3 O O O o o   o . . o O o o ",
"o o o o o o o + o + O q q q q 9 w i y g h l l A ( _ ( Q ^ ^ X.1.~ T U ~ ~ R T T P L K s s 0 0 0 9 4 4 O O O O O o o . o O O O ",
"o o o o o o o o + + 3 3 7 9 7 q y y i i g l l g T L U U W W W { R R U R R R T U K L S k s s 0 0 9 9 4 4 3 3 3 O O o o O O = O ",
"o o o o o o o o + + 3 3 3 3 3 9 y 8 i i g l l g I D T Q ^ ^ L k R R ~ U T R T P K k K k K s s 0 9 0 4 3 3 3 3 O O O o o O O 4 ",
"o o o o o o o o o o O 3 3 3 3 9 q 8 q i h h A h P P ~ T k U P P L U Y I I U L l s K s s s K 0 0 9 9 4 O O O & O O O o o O O O ",
"X X X o o X o o o o o O O 3 3 3 = 7 8 8 w i h i P D P k a D L S k l D l l D l k s s s 0 0 0 0 7 7 9 4 O O O O O O o o o O O O ",
"X X X X X X o o X o o O o O 3 3 = = 7 7 8 w i i I L I K L T j a f k l l h k f s a 0 0 0 0 0 7 4 4 4 4 3 O 3 O O O O o o O O o ",
"X X o X X o X o o o o O o o 3 3 4 = = 7 7 8 i i f k P K L S a j f g g l k a w w 0 0 4 9 9 0 4 4 4 4 3 O O O O O O o O O O O o ",
"X X X o o o X o X o o o o o o o & o + = = q q i a s s s s S s C s s a K s 0 0 0 4 9 4 4 4 = = 3 O O O O O O O O O O O O o o o ",
"X X o o o o o X X X o o X X o o o o X + + = = 7 4 0 4 0 0 0 0 0 0 0 0 0 0 9 9 4 3 3 3 3 O = O 3 O O O O O O O O O O o O o & o ",
"X X o o o o X o . X o X X X X o o o o o o + = q 4 4 4 4 4 4 4 4 4 4 7 7 4 4 3 3 O O O O O O O O O O O O O O O O o O O o o o o ",
"X X X o o o o X X X X o X X o o o o o o o = = 3 4 4 4 4 4 4 4 4 4 4 9 4 9 4 3 3 O O O O O O O O O O O O O o O o o o o O o o o ",
"X X X o o o o o X X o o o X o o o o o o O + O + 4 4 4 4 0 0 4 4 0 9 9 4 9 4 3 3 O O O O O O O O O O O O o O o o o O o o o o o ",
"X X X o o o o X o o o o o o o o o o X X X o O O 4 3 4 4 4 4 4 4 9 9 0 4 4 3 3 3 O O O O O O O O O O O O O O O O o o o O o o O ",
"X X o o o o o X X X o o o X o O X X o o X X O O O O 3 3 4 4 3 O 4 4 4 4 3 3 3 O O O O O O O O O O O O O O O & o o O O O o O O ",
"X X X o o o X o X X X o X X o o X o X X X O O O O o o 3 O O O 3 4 O 4 3 3 3 3 O O O O O O O O O 4 O O O O O O O O o O o O o O ",
"X X o o o o X X X X   o o o o o o o o o o o o o o o 3 3 X o o O o O 4 O O 3 O o o o O O O O O O O O o O o O o o . o o o o o o ",
"X X X X o o o X X X   X o o o o o O O o o o o o o o 3 o 3 o o X O O O O O 3 O o o O o O O O O O O O O O o o o o o o & . o o o "
};
