/* XPM */
static char *_7ece6d6631e416f88a4a1504e390d0dYJD1Z7YLhiiVSadI[] = {
/* columns rows colors chars-per-pixel */
"50 50 14 1 ",
"  c None",
". c #193C3E",
"X c #352C2E",
"o c #743F39",
"O c #68386C",
"+ c #265C42",
"@ c #3A4466",
"# c #3E8948",
"$ c #63C74D",
"% c #C28569",
"& c #8B9BB4",
"* c #EAD4AA",
"= c #C0CBDC",
"- c white",
/* pixels */
"                                                  ",
"                                                  ",
"                   X  XXXXXXXXXXX                 ",
"                  XXXXXooooooXXX                  ",
"                 XXoXoooooXXXXXXX                 ",
"                XXooXooXoXXXXoooXXX               ",
"                XXoXXXXXXXXXXXoooXXX              ",
"                XXXX%%%%%%ooXXXooooXX             ",
"                XXo%*****%oooXXXXXXX              ",
"                XXXo%****oXXoooXXXX               ",
"                XXooo%%*%Xoo%%%oXXX               ",
"                XXXooX%*%Xooo%%oooXX              ",
"               XXX@&Xo***XX&&o%oXooXX             ",
"               XXXO=Xo***XX==%%oXXoXX             ",
"               XXX&-&O***X&--%%oXXX               ",
"                XX&-=O***O=--%oXXXX               ",
"                XXO=&&%%%&&--%oXooXX              ",
"               XXXo%--%%%---%oXXooXX              ",
"                 Xo%********%%oO&OX     XX        ",
"                 XXO*********oX=-&X    oooo       ",
"           ooo   XO=O*******oXX=-&X   X%***X      ",
"          Xo%oX  XO=&XO----=@XX&=OX   X%***X      ",
"          Xo%oXXXXXXXXoo-oooXXXXX.XXX.X%***X      ",
"          Xo%o.+##.+#ooooooooX++$$#+#$#%***X      ",
"          Xo%o.+##.+#ooo-ooooX++$$#+#$$%***X      ",
"          Xo%%#+.+##XoooooooXX$$#+#$#+o%***X      ",
"           XX+#+.+##XXooooooXX$$#+#$#+o%%XX       ",
"             XXXXXXX.XXoooXXXX++$$#.XXXXX         ",
"                  XX.XXXXXXXXX+.+++               ",
"                  XXXooXXXoooX#$+X                ",
"                  XXXooXoooooX$$#X                ",
"                  XXXoXXooooXX##+X                ",
"                  XO==&==&&@@X++.X                ",
"                  X@&=&--&===O#$+X                ",
"                  XX@OO&&O&&&@$$#X                ",
"                  XXXoooXXXooX###+                ",
"                  XXooooXXXooX++$#X               ",
"                  XXooooXXooooX##+X               ",
"                  XXooooXXooooX$#.X               ",
"                  XXooooXXooooX#+XX               ",
"                  XXXoooXXXoooXXXXX               ",
"                  XXXXXXXXXXXXXXX                 ",
"                  XXXXXXXXXXXXXXX                 ",
"                   XXXXXXXXXXXXXX                 ",
"                    XXOOXXXXOO+XX                 ",
"                     @==XXXX--&XX                 ",
"                    X@==XXXX=-OX                  ",
"                  XXXXXXXXXXXXXX                  ",
"                XXXooXXXXooXXXXX                  ",
"                XXXXXXXXXXXXXXXX                  "
};
