/* XPM */
static char *_b9c4461a9164d1f819e1f7ba1689e5eTI0lZb8BHZT5mCln[] = {
/* columns rows colors chars-per-pixel */
"50 50 14 1 ",
"  c None",
". c #193C3E",
"X c #352C2E",
"o c #743F39",
"O c #68386C",
"+ c #265C42",
"@ c #3E8948",
"# c #63C74D",
"$ c #C28569",
"% c #5A6988",
"& c #8B9BB4",
"* c #EAD4AA",
"= c #C0CBDC",
"- c white",
/* pixels */
"                 XXXXXXXXXXX  XX                  ",
"                  XXXooooooXXXXXX                 ",
"                 XXXXXXXoooooXoXX                 ",
"               XXXoooXXXXoXooXooXX                ",
"              XXXoooXXXXXXXXXXXoXX                ",
"             XXooooXXXoo*****$oXXX                ",
"              XXXXXXXooo$*****$oXX                ",
"               XXXXo$$XXo****$oXXX                ",
"              XXXXo$$$$$X%*$%$$oXX                ",
"             XXXooo$$oooX$*$XooXXX                ",
"             XXooXo$o&&XX***oX&OXXX               ",
"              XXXXo$$-=XX***oX=%XXX               ",
"               XXXXo$--=O***O&-&XXX               ",
"               XXXXo$--=O***O=-&XX                ",
"              XXooXo$*-==$$$&=*%XX                ",
"       XXX    XXoXXXo$---$$$--$oXX                ",
"      X%%%o    XO&&o$$********$oX    X            ",
"      X***$X   X&-=Xo*********%.X   ooo           ",
"      X***$X   X&-=XXo*******%=%X  Xo$oX          ",
"      X***$X   X%=&XXO=----OX&=%X  Xo$oX          ",
"      X***$+++X.++XXXXooo-ooXXXXX.XXo$oX          ",
"      X***$##@+@##++Xoooooooo@+.@@+.o$oX          ",
"      X$**$##@+@##++Xoooo-ooo@+.@@+.o$oX          ",
"       XX$$o+@#@+@##XXoooooooX@@+.+@+XX           ",
"         XX.+@#@+@##XXooooooXX@@+.+@+X            ",
"          X@#@+@##++XXXXooXXX.XXX++.XX            ",
"          X@#@++XX.+XXXXXXXXX.XX XXXX             ",
"          XX.XXXX@##XoooXXXooXXX       XXXX       ",
"                X@##XXooooXXoXXX      XXoXX       ",
"                X+@+XXXX&--&=%XXXXX   XXoXX       ",
"                X.++%===&--%%XooooXX XXXXXX       ",
"           XXXXXX+#@X&&%O&&ooXXoooXXXXXXXXX       ",
"          XXXXXXX+@+XXXXXXXXXXXXXX%%%%XXXX        ",
"        XXXX&=&XXXoooooXXXXXXXXXXX%&&%XXXX        ",
"       XXXXX=-=XXXoooooXXXXXXXXXXX%&&%XXXX        ",
"      XXXoXX==&XXooooooXXXXXXXXXXX%%%OXXXX        ",
"      XXooXX&&XXXoooooXXX         XXXXXXXX        ",
"      XXXXX XXXXXXooXXXX             XXXXX        ",
"       XX    XXXXXXXXX                            ",
"                XXXXX                             ",
"                                                  ",
"                                                  ",
"                                                  ",
"                                                  ",
"                                                  ",
"                                                  ",
"                                                  ",
"                                                  ",
"                                                  ",
"                                                  "
};
