/* XPM */
static char *f0f783f49aba49decfa2cb3c5d637f5b1JKHzT0tC6QH3tQG[] = {
/* columns rows colors chars-per-pixel */
"50 50 14 1 ",
"  c None",
". c #193C3E",
"X c #352C2E",
"o c #743F39",
"O c #68386C",
"+ c #265C42",
"@ c #3A4466",
"# c #3E8948",
"$ c #63C74D",
"% c #C28569",
"& c #8B9BB4",
"* c #EAD4AA",
"= c #C0CBDC",
"- c white",
/* pixels */
"                                                  ",
"                                                  ",
"                 XXXXXXXXXXX  X                   ",
"                  XXXooooooXXXXX                  ",
"                 XXXXXXXoooooXoXX                 ",
"               XXXoooXXXXoXooXooXX                ",
"              XXXoooXXXXXXXXXXXoXX                ",
"             XXooooXXXoo%%%%%%XXXX                ",
"              XXXXXXXooo%*****%oXX                ",
"               XXXXoooXXo****%oXXX                ",
"               XXXo%%%ooX%*%%oooXX                ",
"              XXooo%%oooX%*%XooXXX                ",
"             XXooXo%o&&XX***oX&@XXX               ",
"             XXoXXo%%==XX***oX=OXXX               ",
"               XXXo%%--&X***O&-&XXX               ",
"               XXXXo%--=O***O=-&XX                ",
"              XXooXo%--&&%%%&&=OXX                ",
"              XXooXXo%---%%%--%oXXX               ",
"        XX     XO&Oo%%********%oX                 ",
"       oooo    X&-=Xo*********OXX                 ",
"      X***%X   X&-=XXo*******O=OX   ooo           ",
"      X***%X   XO=&XX@=----OX&=OX  Xo%oX          ",
"      X***%X.XXX.XXXXXooo-ooXXXXXXXXo%oX          ",
"      X***%#$#+#$$++Xoooooooo#+.##+.o%oX          ",
"      X***%$$#+#$$++Xoooo-ooo#+.##+.o%oX          ",
"      X***%o+#$#+#$$XXoooooooX##+.+#%%oX          ",
"       XX%%o+#$#+#$$XXooooooXX##+.+#+XX           ",
"         XXXXX.#$$++XXXXoooXX.XXXXXXX             ",
"               +++.+XXXXXXXXX.XX                  ",
"                X+$#XoooXXXooXXX                  ",
"                X#$$XoooooXooXXX                  ",
"                X+##XXooooXXoXXX                  ",
"                X.++X@@&&==&==OX                  ",
"                X+$#O===&--&=&@X                  ",
"                X#$$@&&&O&&OO@XX                  ",
"                +###XooXXXoooXXX                  ",
"               X#$++XooXXXooooXX                  ",
"               X+##XooooXXooooXX                  ",
"               X.#$XooooXXooooXX                  ",
"               XX+#XooooXXooooXX                  ",
"               XXXXXoooXXXoooXXX                  ",
"                 XXXXXXXXXXXXXXX                  ",
"                 XXXXXXXXXXXXXXX                  ",
"                 XXXXXXXXXXXXXX                   ",
"                 XX+OOXXXXOOXX                    ",
"                 XX&--XXXX==@                     ",
"                  XO-=XXXX==@X                    ",
"                  XXXXXXXXXXXXXX                  ",
"                  XXXXXooXXXXooXXX                ",
"                  XXXXXXXXXXXXXXXX                "
};
