/* XPM */
static char *aeb101464a644f96ad5fe1bbfa42bd3choXmeVcFcBXnoHHi[] = {
/* columns rows colors chars-per-pixel */
"50 50 14 1 ",
"  c None",
". c #193C3E",
"X c #352C2E",
"o c #743F39",
"O c #68386C",
"+ c #265C42",
"@ c #3E8948",
"# c #63C74D",
"$ c #C28569",
"% c #5A6988",
"& c #8B9BB4",
"* c #EAD4AA",
"= c #C0CBDC",
"- c white",
/* pixels */
"                                                  ",
"                 XXXXXXXXXXX  X                   ",
"                  XXXooooooXXXXX                  ",
"                 XXXXXXXoooooXoXX                 ",
"               XXXoooXXXXoXooXooXX                ",
"              XXXoooXXXXXXXXXXXoXX                ",
"             XXooooXXXoo*****$oXXX                ",
"              XXXXXXXooo$*****$oXX                ",
"               XXXXo$$XXo****$oXXX                ",
"              XXXXo$$$ooX$*$$$ooXX                ",
"             XXXooo$$oooX$*$XooXXX                ",
"             XXooXo$o&&XX***oX&OXXX               ",
"              XXXXo$$-=XX***oX=%XXX               ",
"               XXXo$$--&X***O&-&XXX               ",
"               XXXXo$--=O***O=-&XX                ",
"       XXX    XXooXo$*-&&$$$&&=%XX                ",
"      X%%%o   XXoXXXo$---$$$--$oXX   X            ",
"      X***$X   XO&%o$$********$oX   ooo           ",
"      X***$X   X&-=Xo*********%.X  Xo$oX          ",
"      X***$X   X&-=XXo*******%=%X  Xo$oX          ",
"      X***$+++ X%=&XXO=----OX&=%X.X.o$oX          ",
"      X***$##@XX+.XXXXooo-ooXXXXX@+.o$oX          ",
"      X$**$##@+@##++Xoooooooo@+.@@++ooX           ",
"       XX$$o+++@##++Xoooo-ooo@+.@++@+X            ",
"         XX.+@#@+@##XXoooooooX@@+.++XX            ",
"          X@###@+@##XXooooooXX@@+@+.XX            ",
"          X@#@+@##++XXXXooXXX...@@+XXX            ",
"          XX.XXX.X.+XXXXXXXXX.XXXXX               ",
"                X+#@XoooXXXooXXX                  ",
"                X@##XXooooXXoXXX                  ",
"                X+@+XXXX&==&==%X                  ",
"                X.++O===&--%%&+X                  ",
"                X+#@+&&&%&&XXXXXXX                ",
"                X@##XXXXXXXXooXXooXX              ",
"                +@@@XXXXXXXXXXXooooXX             ",
"               X@#+.XXXXXXXXXXXXooooXX            ",
"            XXXX+@.XoooXXXXXXXXXXoooXX  XXX       ",
"           XXXXXX.XoooooXXXXXXXXXXXXXX XXXXX      ",
"           XXXXXXXXoooooXX XXXXXXXXO%OXooXXX      ",
"           XX%&&XXXoooooXX    XXXXO&&%XoXXXX      ",
"          XXX=-=XXooooooX      XXX%&&%XXXXX       ",
"          XXX&=&XXooooooX         X%OXXXXX        ",
"         XXoXXXXXXXoooXX          XXXXXXX         ",
"        XXooXXXXXXXXXX             XXXXX          ",
"        XXXXX                       XXX           ",
"         XXX                                      ",
"                                                  ",
"                                                  ",
"                                                  ",
"                                                  "
};
