/* XPM */
static char *_dc023e4be49464fae2ef0352ed3824c0WujX2a5VHU3IWse[] = {
/* columns rows colors chars-per-pixel */
"50 50 14 1 ",
"  c None",
". c #193C3E",
"X c #352C2E",
"o c #743F39",
"O c #68386C",
"+ c #265C42",
"@ c #3A4466",
"# c #3E8948",
"$ c #63C74D",
"% c #C28569",
"& c #5A6988",
"* c #EAD4AA",
"= c #C0CBDC",
"- c white",
/* pixels */
"                 XXXXXXXXXXX  XX                  ",
"                  XXXooooooXXXXXX                 ",
"                 XXXXXXXoooooXoXX                 ",
"               XXXoooXXXXoXooXooXX                ",
"              XXXoooXXXXXXXXXXXoXX                ",
"             XXooooXXXoo*****%oXXX                ",
"              XXXXXXXooo%*****%oXX                ",
"               XXXXo%%XXo****%oXXX                ",
"              XXXXo%%%%%X&*%&%%oXX                ",
"             XXXooo%%oooX%*%XooXXX                ",
"             XXooXo%o&&XX***oX&OXXX               ",
"              XXXXo%%-=XX***oX=&XXX               ",
"               XXXXo%--=@***O=-&XXX               ",
"               XXXXo%--=O***O=-&XX                ",
"              XXooXo%*-==%%%==*&XX                ",
"       XXX    XXoXXXo%---%%%--%oXX                ",
"      X&&&o    XO%&o%%********%oX    X            ",
"      X***%X   X%-=Xo*********&@X   ooo           ",
"      X***%X   X&-=XXo*******&=&X  Xo%oX          ",
"      X***%X   X&=&XX@=----OX==&X  Xo%oX          ",
"      X***%+++X.++XXXXooo-ooXXXXX.XXo%oX          ",
"      X***%$$#+#$$++Xoooooooo#+.##+.o%oX          ",
"      X%**%$$#+#$$++Xoooo-ooo#+.##+.o%oX          ",
"       XX%%o+#$#+#$$XXoooooooX##+.+#+XX           ",
"         XX.+#$#+#$$XXooooooXX##+.+#+X            ",
"          X#$#+#$$++XXXXooXXX.XXX++.XX            ",
"          X#$#++XX.+XXXXXXXXX.XX XXXX             ",
"          XX.XXXX#$$XoooXXXooXXX       XXXX       ",
"                X#$$XXooXXXXXXXX      XXoXX       ",
"                X+#+XXXXXoooooXXXXX   XXoXX       ",
"               XX.++XXXoooooooooooXX XXoXXX       ",
"           XXXXX+$#XXXXoooooooooooXXXXXoXXX       ",
"          XXXXXX+#+XXXXXXoooooooXX===%XoXX        ",
"        XXXXX@@XXXXXXXXXXXXXXXXXXX=--=XXXX        ",
"       XXXXX@&@XXXXXXXXXXXXXXXXXXX&=-=XXXX        ",
"      XXXXXX@&@XXXXXXXXXXXXXXXXXXXX&=&XXXX        ",
"      XXXXXX@@XXXXXooXXXX         XXXXXXXX        ",
"      XXXXX XXXXXXXooXXX             XXXXX        ",
"       XX    XXXXXXooX                            ",
"                XXXXX                             ",
"                                                  ",
"                                                  ",
"                                                  ",
"                                                  ",
"                                                  ",
"                                                  ",
"                                                  ",
"                                                  ",
"                                                  ",
"                                                  "
};
