/* XPM */
static char *_73b4b9181b34558b16d640e624fe60bMuf2icggNKEDwNKY[] = {
/* columns rows colors chars-per-pixel */
"50 50 14 1 ",
"  c None",
". c #193C3E",
"X c #352C2E",
"o c #743F39",
"O c #68386C",
"+ c #265C42",
"@ c #3E8948",
"# c #63C74D",
"$ c #C28569",
"% c #5A6988",
"& c #8B9BB4",
"* c #EAD4AA",
"= c #C0CBDC",
"- c white",
/* pixels */
"                                                  ",
"                   X  XXXXXXXXXXX                 ",
"                  XXXXXooooooXXX                  ",
"                 XXoXoooooXXXXXXX                 ",
"                XXooXooXoXXXXoooXXX               ",
"                XXoXXXXXXXXXXXoooXXX              ",
"                XXXo$*****ooXXXooooXX             ",
"                XXo$*****$oooXXXXXXX              ",
"                XXXo$****oXX$$oXXXX               ",
"                XXoo$$$*$Xoo$$$oXXXX              ",
"                XXXooX$*$Xooo$$oooXXX             ",
"               XXXO&Xo***XX&&o$oXooXX             ",
"               XXX%=Xo***XX=-$$oXXXX              ",
"               XXX&-&O***X&--$$oXXX               ",
"                XX&-=O***O=--$oXXXX               ",
"                XX%=&&$$$&&-*$oXooXX    XXX       ",
"            X   XXo$--$$$---$oXXXoXX   o%%%X      ",
"           ooo   Xo$********$$o%&OX   X$***X      ",
"          Xo$oX  X.%*********oX=-&X   X$***X      ",
"          Xo$oX  X%=%*******oXX=-&X   X$***X      ",
"          Xo$o.X.X%=&XO----=OXX&=%X +++$***X      ",
"          Xo$o.+@XXXXXoo-oooXXXX.+XX@##$***X      ",
"           Xoo++@@.+@ooooooooX++##@+@##$**$X      ",
"            X+@++@.+@ooo-ooooX++##@+++o$$XX       ",
"            XX++.+@@XoooooooXX##@+@#@+.XX         ",
"            XX.+@+@@XXooooooXX##@+@###@X          ",
"            XXX+@@...XXXooXXXX++##@+@#@X          ",
"               XXXXX.XXXXXXXXX+.X.XXX.XX          ",
"                  XXXooXXXoooX@#+X                ",
"                  XXXoXXooooXX##@X                ",
"                  X%==&==&XXXX+@+X                ",
"                  X+&%%--&===O++.X                ",
"                XXXXXXX&&%&&&+@#+X                ",
"              XXooXXooXXXXXXXX##@X                ",
"             XXooooXXXXXXXXXXX@@@+                ",
"            XXooooXXXXXXXXXXXX.+#@X               ",
"       XXX  XXoooXXXXXXXXXXoooX.@+XXXX            ",
"      XXXXX XXXXXXXXXXXXXXoooooX.XXXXXX           ",
"      XXXooXO%OXXXXXXXX XXoooooXXXXXXXX           ",
"      XXXXoX%&&OXXXX    XXoooooXXX&&%XX           ",
"       XXXXX%&&%XXX      XooooooXX=-=XXX          ",
"        XXXXXO%X         XooooooXX&=&XXX          ",
"         XXXXXXX          XXoooXXXXXXXoXX         ",
"          XXXXX             XXXXXXXXXXooXX        ",
"           XXX                       XXXXX        ",
"                                      XXX         ",
"                                                  ",
"                                                  ",
"                                                  ",
"                                                  "
};
