/* XPM */
static char *cd486e1452b84d6ca8012f6bdaef2447gJbpCZ5nwaX0SSrN[] = {
/* columns rows colors chars-per-pixel */
"50 50 14 1 ",
"  c None",
". c #193C3E",
"X c #352C2E",
"o c #743F39",
"O c #68386C",
"+ c #265C42",
"@ c #3A4466",
"# c #3E8948",
"$ c #63C74D",
"% c #C28569",
"& c #5A6988",
"* c #EAD4AA",
"= c #C0CBDC",
"- c white",
/* pixels */
"                  XX  XXXXXXXXXXX                 ",
"                 XXXXXXooooooXXX                  ",
"                 XXoXoooooXXXXXXX                 ",
"                XXooXooXoXXXXoooXXX               ",
"                XXoXXXXXXXXXXXoooXXX              ",
"                XXXo%*****ooXXXooooXX             ",
"                XXo%*****%oooXXXXXXX              ",
"                XXXo%****oXX%%oXXXX               ",
"                XXo%%&%*&X%%%%%oXXXX              ",
"                XXXooX%*%Xooo%%oooXXX             ",
"               XXXO&Xo***XX&&o%oXooXX             ",
"               XXX&=Xo***XX=-%%oXXXX              ",
"               XXX&-=O***@=--%oXXXX               ",
"                XX&-=O***O=--%oXXXX               ",
"                XX&*==%%%==-*%oXooXX              ",
"                XXo%--%%%---%oXXXoXX    XXX       ",
"            X    Xo%********%%o&%OX    o&&&X      ",
"           ooo   X@&*********oX=-%X   X%***X      ",
"          Xo%oX  X&=&*******oXX=-&X   X%***X      ",
"          Xo%oX  X&==XO----=@XX&=&X   X%***X      ",
"          Xo%oXX.XXXXXoo-oooXXXX++.X+++%***X      ",
"          Xo%o.+##.+#ooooooooX++$$#+#$$%***X      ",
"          Xo%o.+##.+#ooo-ooooX++$$#+#$$%**%X      ",
"           XX+#+.+##XoooooooXX$$#+#$#+o%%XX       ",
"            X+#+.+##XXooooooXX$$#+#$#+.XX         ",
"            XX.++XXX.XXXooXXXX++$$#+#$#X          ",
"             XXXX XX.XXXXXXXXX+.XX++#$#X          ",
"       XXXX       XXXooXXXoooX$$#XXXX.XX          ",
"       XXoXX      XXXXXXXXooXX$$#X                ",
"       XXoXX   XXXXXoooooXXXXX+#+X                ",
"       XXXoXX XXoooooooooooXXX++.XX               ",
"       XXXoXXXXXoooooooooooXXXX#$+XXXXX           ",
"        XXoX%===XXoooooooXXXXXX+#+XXXXXX          ",
"        XXXX=--=XXXXXXXXXXXXXXXXXXX@@XXXXX        ",
"        XXXX=-=&XXXXXXXXXXXXXXXXXXX@&@XXXXX       ",
"        XXXX&=&XXXXXXXXXXXXXXXXXXXX@&@XXXXXX      ",
"        XXXXXXXX         XXXXooXXXXX@@XXXXXX      ",
"        XXXXX             XXXooXXXXXXX XXXXX      ",
"                            XooXXXXXX    XX       ",
"                             XXXXX                ",
"                                                  ",
"                                                  ",
"                                                  ",
"                                                  ",
"                                                  ",
"                                                  ",
"                                                  ",
"                                                  ",
"                                                  ",
"                                                  "
};
