/* XPM */
static char *_511d33a95bf4d77b0ef0dfd643da772wbUdUEsmPScnv9bs[] = {
/* columns rows colors chars-per-pixel */
"50 50 14 1 ",
"  c None",
". c #193C3E",
"X c #352C2E",
"o c #743F39",
"O c #68386C",
"+ c #265C42",
"@ c #3A4466",
"# c #3E8948",
"$ c #63C74D",
"% c #C28569",
"& c #5A6988",
"* c #EAD4AA",
"= c #C0CBDC",
"- c white",
/* pixels */
"                                                  ",
"                   X  XXXXXXXXXXX                 ",
"                  XXXXXooooooXXX                  ",
"                 XXoXoooooXXXXXXX                 ",
"                XXooXooXoXXXXoooXXX               ",
"                XXoXXXXXXXXXXXoooXXX              ",
"                XXXo%*****ooXXXooooXX             ",
"                XXo%*****%oooXXXXXXX              ",
"                XXXo%****oXX%%oXXXX               ",
"                XXoo%%%*%Xoo%%%oXXXX              ",
"                XXXooX%*%Xooo%%oooXXX             ",
"               XXX@&Xo***XX&&o%oXooXX             ",
"               XXX&=Xo***XX=-%%oXXXX              ",
"               XXX&-%O***@=--%%oXXX               ",
"                XX&-=O***O=--%oXXXX               ",
"                XX&=%%%%%%%-*%oXooXX    XXX       ",
"            X   XXo%--%%%---%oXXXoXX   o&&&X      ",
"           ooo   Xo%********%%o&&OX   X%***X      ",
"          Xo%oX  X.&*********oX=-%X   X%***X      ",
"          Xo%oX  X&=&*******oXX=-%X   X%***X      ",
"          Xo%o.X.X&==XO----=@XX==&X +++%***X      ",
"          Xo%o.+#XXXXXoo-oooXXXX.+XX#$$%***X      ",
"           Xoo++##.+#ooooooooX++$$#+#$$%**%X      ",
"            X+#++#.+#ooo-ooooX++$$#+++o%%XX       ",
"            XX++.+##XoooooooXX$$#+#$#+.XX         ",
"            XX.+#+##XXooooooXX$$#+#$$$#X          ",
"            XXX+##...XXXooXXXX++$$#+#$#X          ",
"               XXXXX.XXXXXXXXX+.X.XXX.XX          ",
"                  XXXooXXXoooX#$+X                ",
"                  XXXoXXooooXX$$#X                ",
"                  XXXXXXXXXXXX+#+X                ",
"                  XXooooooXXXX++.X                ",
"                XXooooooooooXX#$+X                ",
"              XXooooooooooooXX$$#X                ",
"             XXooooooooooooXXX###+                ",
"            XXXoooooooooooXXXX.+$#X               ",
"       XXX  XXXoooooXXXXXXXXXXX.#+XXXX            ",
"      XXXXX XXXXXXXXXXXXXXXXXXXX.XXXXXX           ",
"      XXXoXX%=&XXXXXXXX XXXXXXXXXX&OXXX           ",
"      XXXXXX=-=&XXXX    XXXXXXXXXX&=&XX           ",
"       XXXXX%--=XXX      XXXXXXXXX&=&XXX          ",
"        XXXXX&%X         XXXXXXXXXX&&XXX          ",
"         XXXXXXX          XXXXXXXXXXXXoXX         ",
"          XXXXX             XXXXXXXXXXooXX        ",
"           XXX                       XXXXX        ",
"                                      XXX         ",
"                                                  ",
"                                                  ",
"                                                  ",
"                                                  "
};
