/* XPM */
static char *_92803cbaf0d450ba6fed2132c70189dCZfYLQfGC9j6jkqp[] = {
/* columns rows colors chars-per-pixel */
"50 50 187 2 ",
"   c #3A0100",
".  c #420300",
"X  c #470B00",
"o  c #4B0C00",
"O  c #530D00",
"+  c #531500",
"@  c #581600",
"#  c #5D1C00",
"$  c #641D01",
"%  c #6E1F00",
"&  c #632004",
"*  c #6E2502",
"=  c #622309",
"-  c #6D290D",
";  c #752303",
":  c #762900",
">  c #732A0A",
",  c #7C2C0A",
"<  c #7A2604",
"1  c #77310D",
"2  c #7B310C",
"3  c #6C2C11",
"4  c #762C13",
"5  c #7B2E14",
"6  c #763414",
"7  c #7D3413",
"8  c #763912",
"9  c #7C3A17",
"0  c #743519",
"q  c #7D361A",
"w  c #7E3A1B",
"e  c #7D3E22",
"r  c #7C401C",
"t  c #7A4523",
"y  c #83350E",
"u  c #822D10",
"i  c #833514",
"p  c #8A3614",
"a  c #853B15",
"s  c #8B3B16",
"d  c #83361B",
"f  c #843C1B",
"g  c #8A3D1B",
"h  c #903C17",
"j  c #943D1D",
"k  c #853E22",
"l  c #8B3E21",
"z  c #923F22",
"x  c #983E23",
"c  c #8E4217",
"v  c #84411C",
"b  c #8D421D",
"n  c #92441E",
"m  c #99461D",
"M  c #944C1D",
"N  c #844324",
"B  c #8C4423",
"V  c #814926",
"C  c #8E4925",
"Z  c #86452A",
"A  c #8C4629",
"S  c #85492D",
"D  c #8D4B2C",
"F  c #944523",
"G  c #9B4522",
"H  c #954A25",
"J  c #9A4B25",
"K  c #93462A",
"L  c #9B462B",
"P  c #944C2B",
"I  c #9B4D2B",
"U  c #87532B",
"Y  c #955027",
"T  c #9C5026",
"R  c #95522D",
"E  c #9C522C",
"W  c #8C4C32",
"Q  c #954D32",
"!  c #9B4E32",
"~  c #8B5237",
"^  c #8E5B38",
"/  c #955333",
"(  c #9C5433",
")  c #955E35",
"_  c #9C5936",
"`  c #955439",
"'  c #9C563A",
"]  c #9C5A3B",
"[  c #A24726",
"{  c #A14B25",
"}  c #A14D2C",
"|  c #A94C2C",
" . c #A2522D",
".. c #AB542E",
"X. c #A45A2D",
"o. c #A24E31",
"O. c #A35533",
"+. c #AA5532",
"@. c #A45A34",
"#. c #AA5B36",
"$. c #A35639",
"%. c #A9573A",
"&. c #A45B3B",
"*. c #AB5C3B",
"=. c #B35534",
"-. c #B15B36",
";. c #B2563F",
":. c #B15D3B",
">. c #B85B3D",
",. c #AA6136",
"<. c #A5613E",
"1. c #AC623C",
"2. c #B36036",
"3. c #B2633D",
"4. c #B9653D",
"5. c #B4693D",
"6. c #9E5C43",
"7. c #A25E42",
"8. c #AB5E41",
"9. c #B25E42",
"0. c #9D6144",
"q. c #9F6A42",
"w. c #9C6449",
"e. c #A66042",
"r. c #A46143",
"t. c #AA6641",
"y. c #AE6541",
"u. c #AE6545",
"i. c #AD6443",
"p. c #AD6A45",
"a. c #A56549",
"s. c #AC664A",
"d. c #A56A4C",
"f. c #AE6C4A",
"g. c #B26743",
"h. c #B46545",
"j. c #B36543",
"k. c #B86542",
"l. c #B36A44",
"z. c #BA6A45",
"x. c #B3664A",
"c. c #B8644C",
"v. c #B66E4A",
"b. c #B36B4B",
"n. c #BF684C",
"m. c #BA6C4C",
"M. c #B5714E",
"N. c #BC724D",
"B. c #A96751",
"V. c #AE6C55",
"C. c #B36D52",
"Z. c #BA6E51",
"A. c #AE7258",
"S. c #AD7B5A",
"D. c #B67352",
"F. c #BC7353",
"G. c #BE7A56",
"H. c #B67758",
"J. c #BA775A",
"K. c #BF785C",
"L. c #BE7B5B",
"P. c #C16945",
"I. c #C46E4B",
"U. c #C57047",
"Y. c #C1724C",
"T. c #C17653",
"R. c #C27454",
"E. c #C57B56",
"W. c #C87952",
"Q. c #C57C5A",
"!. c #CA7C5D",
"~. c #DB7D64",
"^. c #C4805D",
"/. c #C8805A",
"(. c #D4805C",
"). c #CD8264",
"_. c #D28666",
"`. c #D98566",
"'. c #D48868",
"]. c #DC906E",
"[. c #CF9275",
"{. c #D59579",
"}. c #DB9A7C",
"|. c #E39775",
" X c #ECAA8A",
".X c #FFBFA1",
"XX c #FFCEAE",
/* pixels */
"@.T ,.T H T t.E b ( g.( ( H ( <.O.H &.H @.&.P k / e.` D ` Z C.C.g p d P 7.` ~ w.S e a.J.x.o.9.u d ( ",
"H @.,.H E T *.b.Q.T F ,.F.P H ( I E E H P H *.t.e.D.] D &.t D Z F L x.&.` ` d.w.A.S Z ' ! } P.9.P I ",
"E p.@.v E v f @.,.&.@.B ( g.g.b b g.1.,.( ( <.P P &.f B f./ Z A O.F O.u.] 7.a.D 6.` D l k o.k.I L H ",
",.<.H b ,.@.Y @.@.( *.@.*.&.y.O.E 1.O.*.O.j.g.&./ B & > / / &.u.%.F p &.K / - . 0 ` 7.' K $. .p b B ",
"G.1._ @.t.M.l.p.l.I @.l.T.O.E E O.F F O. .O.v H G.@.C / ( ( ) ( I 3.%.( 6.x 0 O 4 k K ' $.F H n H F ",
"G.<.<.<.P ( &.I  .E C a O.O.@.O. .O.3. .I *.j a @.b H 5.E Y b i J +.h.F 9.o.6.x ! K P K O.F X.( *.O.",
"Y D / <.N ( _ C @.( v 2 T P E h.#.h.k.F I z.Y.1.@.T E ,.T @.#.g.*.J L Q 7.x o.x 9.o.8.! <.H l.@.O.*.",
"r Y _ M.t.M.,.P F.Q.3.P Y.l.O.E  .F s F *.J  .M F E T @.E E c H O.O.! c.x Z.c.6.' 5 x L @.; E ,.F *.",
") <.<.f.M.] ( b.M.M.( H ( ( N.@.E #.O.#.} c H J n ,.#.T c n 5.E H g.I i ; l x Q L l ( L E T ,.3.G G ",
"f B B D _ Y C ( ( @.g.l.R f *.m.@.k.k. .J *.#.J #.J J *.n l.E.X.F P O.%.d $.8.! L !.h.H H #.M I } L ",
"_ @.Y P &.p.t.e.R @.G.b.P ( &.&.@.n  .J J J n #.J n 3.c F M H E E F P ! d K Q d d K.u.F F 2.J  .+.o.",
"a <.Q.M.<.&.<.&.&./ &.4 D t.s.s.E  .5.b s #. .1.s s @.H , 1.F 3.%.*.Q A $.s.x.C.l A ( L O.J -.| } G ",
"1.,.Y a b &.&.P <./ p.N L.s.Q t.1.,.v.E E g.O.@.H H 3.F ].|.O.I Q Q K P ` D W a.' W Q O.%.p [ [ } o.",
"n @.l.1.T R ( E _ ] J.r.}.H.V P 1.n Y ,.,.X.a b O.i.*.8.N.'.B l 9.z 8.C.Z o X + e 7.B L +.L h ..+.;.",
"@.E X.X.E X.<.) _ P ` N 6.a./ ] Y Y Y T @.1.I a M.g O.( > 7 Z.$.x.A 7.a.k X .   = a.Z P | | | =.[ o.",
",.C H E E ( @.I x./ P 7.N N e ] ( H M 1.3.I ( i.( g.d / F.! B *.Q.x.$.D ` e 3 # e r.b.%.O.j >.G j } ",
"D.v _ H I J n.-.+.G 2.c T v M 5.M X.7 *.m.x.F 8.E / s.D.> 1 /.R f E ' P ( ' b.&.! ! ( L %.O.9.:.#.O.",
"<.N p.( *.} j +.[ p -.+.X.E M c ,.k.O.I ! &.' $.&.q 7 ( B B N.p.a v b &.&.L L L %.F O.L O.O.O.c.k.j.",
"U H y.( <.+.< { I.p h  .M ,.E H g P #.I K ! $.k ! Q / y.M.p.p.f.R <.Y P B &.*.O.*.#.m.O.O.h.H H @.@.",
"( E E I @.1.p #.O.p E @.T <.<.O.E I &.$.%.u.Z.u.8.D.C.<.D.N.) p./ &.E ,.O.O.O. .L O.j.9.*.Q.y.#.L E ",
"X.X.M O.E @.@.y.b E Q.p.Q 7.( F &.$.( ! $.s.Q Q s.e.` P G.M.9 R Y ,.<._ @.@.k.#.*.O.n ,.O.H H E &.<.",
"m  .J 3.T P y.&.<.A ] ] 6.` Z Z P P K g K ! $ O ' ] / / D.D.r v R v.l.b I @.N.#. .#.n 1.1.E l.p.b B ",
"m {  .3.E T @.) / # 6 r.6.6.W 6.x.A ! B Q ' f 7 ' <.&.P D ] ] ] E R E ,.,.H J J H #...E E J @.n Y H ",
"....+.X.#.*.) <./ N 0.d.= W 6.6.s.* $.7.t.' ' P / A ` r.R v / <.R _ H @.X.#.*.*.*.*.5.@.1.@.g.M.<.<.",
"4.U.2.y Y <.9 v D d.a..   W B.6.s.f 8.P ] &.7 9 / I P ' r.b.f.t.u.1.v a H 1. .O.1.E E g.z.E ,.C / f.",
"2.m ..@. .@._ <.7.D 0 . = @ B.6.k $.D.Q f P e.P / b._ B 8.] D 8._ H I m.1.@.O.m.J #.b.k.E v ) 1.<.f.",
"T : s M H @.E R ] ` ] O = . Q k 4 g &.I g A p.( g.y.&.( P B B Q a ( F.1.y O.E.*.Q.j.B a H <._ <.C C ",
"M X.@.y 9 F 7 v &.e.Z ' ` # 7.6.l - ' @.I &.E @.O.F @.b.&.I 7.g.&.E @.( g ( m.i.g O.g.<._ <.P b.R ) ",
",.l.p.Y ,.g.E i.*.( &.K Q K.r.P ! I F.*.P 1. .H T @.O.@.h.8.O.x.).O.P u.R.O.B P i.%.&.&.] <.B ] K.Q.",
") 8 C <.<.3.*.!.;.K $.O.( 9 D ] P h.%.@.M H #.T H E J p i F F 7 l ' $.8.!.Z.8.n.$.P / e.b.p.R / / R ",
") ) f.<.@.} +.`.L [ `. .g A P b.( %.g I F s T #.,. .*.X.F k.R.F P 8.C.8.x.! Q 9.).Z.%._ ' ' b.f.M._ ",
"U q.0 . g j.d j k.h.m.E B F H b ( &.E I c M a 5.T T J J J L F g F ( $.l &.u.u.Q K &.e.8.&.b.XXXX XD.",
"^ t # # L c.R.c.8.k B 7 P '.i.n.8.*.b b J v.1.,.M X.,.5.5. .k.M.E.b v p.*.( b.P k A ' 8.H.{.[.B.W S ",
"S.q.t - k 8.9.Z.%.C.<.e.&.*.9.$./ R f ( @.,.T X.c X.X.M T X.5.@.c 1.@.E E ( $.F I h.` q Z Z 0 0 W e ",
"^ t w B L $.x *.$.e.C ) g.K +.O.E @.P 3.5.@.@.,.X.5.X.X.J  .X.H 1.X.T @.O.P O.( &.b.&.] J.H.0.0.a.W ",
"V r / I 8.9.z %.&.d f B u.L i ! %.m.@.#.,.@.5.X.M  .J 5.#.#.#.1.N.@.H Y I @.*.E ( ! 8.f.&.) ` D C.6.",
"M.p.T.g I +.} O.&.l u.( <.L ; F :.z.@. .X.J  .J c #. .*.T #.*.O.T ,.E I 4.@.n 1.m.! P ( Q D B w s.7.",
"/.,.*.s z.%.O.O.F E p.( ( $.O.I  .{ +.#.4.{ M { { W.Y. .b #.%.s J E +.5.z.#.H n.@.I a B i.@.P p.q q ",
"X.c J J ~.z.-. .H L H I F &.m.O.} m :.:.z.-.J -.J #...T O.*.h.F 1.} #. .J #.#. .O.l.3.1.<.b B b.s.7.",
";  .+.s J  .#.} 3.H O.i.l $.( I ..{ P.{ ..#.G =. .u , @.R.G K  .z.n g J  .y * J m.J g E @.@.I B F.&.",
"4.2.{ -.n n O.J E  .O.E O.%.*.1.....P.=.m j p o.-.*.F F z.F 8.F  . . .n @.E F i @. .H c H 1.k.T R.c.",
"G -. . .n #.5.,.g F J *.E.Z.&.*.{  ... .} -.+.-.o.} F J :.O.%.O.g.O.L I #.@.#.*.F *.@.@.,.n #.F h.$.",
"=...:.z.3. .a H n #.} j ( F B *.m | }  .:.k.k.O.z o.:.%.H J J m.o.%.$.%.%.*.E O.E 1.@.#.N.s 1.*.#.o.",
"[ | +.H H g.1.@.#.n.F ; L *.E 1.J #.} +. .L } z %.O.L L O.+.L +.i 8.9.&.P O.A g J T.1.n X.X.z...j.O.",
">.j { F C <.t._ ( m.+.F 2.*.E 1.%.*.J I F i K F +.o.j F #.+.#.O.L %.! K l $.! I E ,.@.&.E n y +.O.L ",
"~.x L m.M.R B C F %.+.+.I a b g.@. .L @.%.} o.O.L $.} L  .m ..-.x.Q 5 d K ! P ' e.B b g.@.F % ..k.&.",
"9.o.K B f.f.d.t.j.L j G J O.@._ T P O.O.8.%.$.$.*.O.L } ..#.m J c.K d K 8.Q D ( ] &.E E ( Y.@.F  .G ",
"L 8.k g D.) C R g.*.#.O.J 3.@.* I P ( B d K K %.o.}  .#.J 3.y  .9.! ' 8.D.( O.u.( @.#.M.z.3.k.O.k.:.",
"$.$.Z.u.] D / D r.R i.g.<.O.F *.n M @.B ) f &.g.#.{ ..4.T z.c ( 7.B o.K *.I F +.J I *.*.@.g B P 3.#.",
"g d ( ` ] ` a.) ] / u.u.&.I n *.F Y p.R p.A O.&.#. .{ ..c ,.1 C x.K ( F m.O.G #.{ n F  .*.H F F %.O."
};
