/* XPM */
static char *aawnk_vn4db[] = {
/* columns rows colors chars-per-pixel */
"50 50 20 1 ",
"  c None",
". c black",
"X c #282828",
"o c #486078",
"O c #A06018",
"+ c #B27E43",
"@ c #888878",
"# c #F89858",
"$ c #F9A268",
"% c #305888",
"& c #3060A8",
"* c #3078E0",
"= c #B0B098",
"- c #F8D088",
"; c #C8C8B0",
": c #FADDAA",
"> c #90B0D8",
", c #D2D2CC",
"< c #F8F8C8",
"1 c #E1E1D8",
/* pixels */
"                                                  ",
"                                                  ",
"                                                  ",
"                                                  ",
"                                                  ",
"                                                  ",
"                                                  ",
"                                                  ",
"                          XXXXXXX                 ",
"                           XXoooo@XX              ",
"                        XXXXooooooo=XX            ",
"                         @@ooooooooo@oo           ",
"                        XX.XooXooXoooo@@          ",
"                        XX...XXXXooXXXo=X         ",
"                       XX.XX.X.XoXXo%%XoX         ",
"                       X%X.XXoXoXo@;;oo@X         ",
"                      XXo%X..OXoX%@>>oo@          ",
"                      XX.o%X.+OX+=ooo.XX          ",
"                     =@%%X.%XX+X+:=:=XXX          ",
"                   X@%&&&%.X%oXXO$<<;XX           ",
"                  XX@&&&%%X.o&%.X+-:@             ",
"                 XO++@&&%%%XXo&&XXXX              ",
"                X@=++o&%%ooX%Xoo&&oX              ",
"               @=;&X.X%o%o%&&%oXoo@OX             ",
"              X=1&X&>.X.&&%%&&%oooXXX             ",
"              Xo&%oo.%&%&%%%%%&&Xoo               ",
"             XO++OOXXo%&&&%%%oX%&*%=X             ",
"             X+#:X@>>&&&&%XXooX%&&&,=X            ",
"              O$@   oXXXXXoo@@XoXoX+++X           ",
"               XX ooXXoXooooo@oo=@O#::X           ",
"                 o@oooooXooooXXooo&=:;X           ",
"                 o@@ooo..XooXXooo@>o@XX           ",
"                  o@oooXXXXX%%%&XXX               ",
"                X@@@oooXX XX&&&&&X                ",
"               X=@OOXXXX   X@&&&@O                ",
"              X==@o+XX      o@&&&o                ",
"            XX@%%=XX         XX=&@                ",
"           @ooXXXX             XX                 ",
"          o@%%oXX                                 ",
"          o@%&%XX                                 ",
"           XX@o+@X                                ",
"             XoooX                                ",
"                                                  ",
"                                                  ",
"                                                  ",
"                                                  ",
"                                                  ",
"                                                  ",
"                                                  ",
"                                                  "
};
