/* XPM */
static char *apzq9_rnwk7[] = {
/* columns rows colors chars-per-pixel */
"50 50 22 1 ",
"  c None",
". c black",
"X c #282828",
"o c #486078",
"O c #A06018",
"+ c #B27E43",
"@ c #888878",
"# c #F89858",
"$ c #F9A268",
"% c #305888",
"& c #3060A8",
"* c #3078E0",
"= c #B0B098",
"- c #F8D088",
"; c #C8C8B0",
": c #FADDAA",
"> c #90B0D8",
", c #BAC3CC",
"< c #B1C0D2",
"1 c #D2D2CC",
"2 c #F8F8C8",
"3 c #EAEAE1",
/* pixels */
"                                                  ",
"                                                  ",
"                                                  ",
"                                                  ",
"                                                  ",
"                                                  ",
"                                                  ",
"                                                  ",
"                                                  ",
"                                                  ",
"                          XXXXXX                  ",
"                        XXXXXoo=Xoo               ",
"                        XX@oXXXoo@o@XX            ",
"                         XoXooooooo@o@X           ",
"                          X..XXooooooo=Xo         ",
"                        Xoo..XXXoXooooo@o         ",
"                     XXX@oo.XXXXX.ooX%XoX         ",
"                  XXX@%%o%X..Xo%oXoo@=oXX         ",
"                XO+OX%%%X%o...XXXooX@1=XX         ",
"               X@=++X%%&X%o...+O.o@X%&@oo         ",
"               ==,%XO&&&X%o...O+.o1X$OXXo         ",
"              X@@=&>o*&&%X&XXXXXXo$22@XXX         ",
"              @<>=@>Xoo%%X%o%XO.XX$::+X           ",
"              o@-:+oX.X%%Xo%&%X..X+++o%=          ",
"              O#:==o%oo%%%XX%%%&*&XXXX=@X         ",
"              X+O+Xo%%%%&%%XXXo%@XX++$;OX         ",
"               XXXX@@%%%%&&%ooXXX XXO+XX          ",
"                    o%%%%%oX..XX   XXX            ",
"                    XX%&&&%&*&XX                  ",
"                   X=.XoooXX%&%@@@o               ",
"                   X@X.XXX&*&o=1;1o               ",
"             XXXX   oo.ooo%&&=;11+X               ",
"            o>%%XoXXXoXoooo%%@@=+#@               ",
"           o@%%%o=oOOooXooooo@@O+;,X              ",
"          Xo%%&%@@oOO@oo@XXoo@XOO=,=X             ",
"          X%%%%XX=@XXXXXoXXXXXXo,;31X             ",
"          o@@=XX XX             @;=&oo  XX        ",
"           XOX                   @o&&&XOO@X       ",
"            X                    X=&&&oOO>X       ",
"                                  X&&&%%>o        ",
"                                  X@%%&@X         ",
"                                   o>%@X          ",
"                                   ooo            ",
"                                                  ",
"                                                  ",
"                                                  ",
"                                                  ",
"                                                  ",
"                                                  ",
"                                                  "
};
