/* XPM */
static char *aszob_0n433[] = {
/* columns rows colors chars-per-pixel */
"50 50 19 1 ",
"  c None",
". c black",
"X c #282828",
"o c #486078",
"O c #A06018",
"+ c #B27E43",
"@ c #888878",
"# c #F89858",
"$ c #F9A268",
"% c #305888",
"& c #3060A8",
"* c #3078E0",
"= c #B0B098",
"- c #F8D088",
"; c #C8C8B0",
": c #FADDAA",
"> c #90B0D8",
", c #F8F8C8",
"< c #E1E1D8",
/* pixels */
"                                                  ",
"                                                  ",
"                                                  ",
"                                                  ",
"                                                  ",
"                                                  ",
"                                                  ",
"                                                  ",
"                                                  ",
"                          XXXXXX                  ",
"                      XXXXXXXooXXXXX              ",
"                       XX.Xoooooooo=oo            ",
"                        XXXXooooooooo@X           ",
"                      XXXXXoXooXooXXX@X           ",
"                       XXX..XX.XoXo&oo=X          ",
"                        XXXXXXXoXo@;;@oX          ",
"                        X%oXXXoooo@>>ooX          ",
"                        X&&X.OOXO@oooooX          ",
"                        X%%&XOOX+:=:=X=X          ",
"                      XOXX%&%.OO$-,:=XX           ",
"                      O@&oXo&&oX+-:$OX            ",
"                     XO%&%XX%&*XX+OOX             ",
"                    X@&&%X&&%%%%o@XX              ",
"                   X@@&&%%&&%&X.X                 ",
"                   X%%&o.XXO%oX.X                 ",
"                  XX%%%%%XO+XO#$=X                ",
"                  X%%%&&%XO#&=+:=XX               ",
"                 o&&oo%o&XX+&@#$++X               ",
"                 XXXoo@@@@@X%=+OO+X               ",
"                X@@@o%&&==@X..XX++X               ",
"               @o=@@@%&*;@@X.Xo=XOX               ",
"              X=@@;;@@=&@@XX@=@oXX                ",
"               X=<=<;=@@Xo%%=X                    ",
"              XO+=;;=@XXo@%oX                     ",
"             XX+#+@@XX   o&&X                     ",
"            X=o+:XX      ooOX                     ",
"           o==@>oX       X@@X                     ",
"         X=o&==X          XX                      ",
"        X=@O&>@                                   ",
"       o@&&%=o                                    ",
"       @&%%&&X                                    ",
"       oo@%@;@=X                                  ",
"         oo@@ooX                                  ",
"           XXXXX                                  ",
"                                                  ",
"                                                  ",
"                                                  ",
"                                                  ",
"                                                  ",
"                                                  "
};
