/* XPM */
static char *a6lce_rp0hy[] = {
/* columns rows colors chars-per-pixel */
"50 50 20 1 ",
"  c None",
". c black",
"X c #282828",
"o c #486078",
"O c #A06018",
"+ c #B27E43",
"@ c #888878",
"# c #F89858",
"$ c #F9A268",
"% c #305888",
"& c #3060A8",
"* c #3078E0",
"= c #B0B098",
"- c #F8D088",
"; c #C8C8B0",
": c #FADDAA",
"> c #90B0D8",
", c #B1C3DE",
"< c #F8F8C8",
"1 c #E1E1D8",
/* pixels */
"                                                  ",
"                                                  ",
"                                                  ",
"                                                  ",
"                                                  ",
"                                                  ",
"                                                  ",
"                                                  ",
"                                                  ",
"                         XXXXXXXX                 ",
"                          XXXooXXXXXX             ",
"                       XXX@ooooooooo@oX           ",
"                        XXXoXoooooooo@X           ",
"                         XXXoXooXooXXo=X          ",
"                         X..XX.XooX%%Xoo          ",
"                        XXXXXXXooXo;;oo@X         ",
"                       X@XXXXXooooo>>oooX         ",
"                     XX=%X...OOoX@ooo.XoX         ",
"                    oo@o%Xoo.OOoO:=:=XXXX         ",
"                   @>%XXo%X..XOX+$<<=XX           ",
"                  X&&%%X.o%X.XOXO#--+X            ",
"                  @***%%XXo&XXX..OO+X             ",
"                  @&oo&&%%o%&%%%%oXX              ",
"                  XXOo%&%%%oo%&&>o                ",
"                  +#&XX&X%*%oXXXo                 ",
"                  @>@@@O+X%%%%XX                  ",
"                  X.@;>++@o%%%%@X                 ",
"                XXX.X=>@+-OXoo&&@X                ",
"               XXX..XXXO#$OoX.XX%X                ",
"              XX%%oo%X.XOX..ooXXXX                ",
"              o@%&X@@@XoXXXXooXX                  ",
"              @=>oXo=@XXooo@=@@;X                 ",
"              XXX   o=X.Xo@=<<1@@X                ",
"                     X..@@++$-#XX                 ",
"                     XXo&@##--+X                  ",
"                     @==;>=#+XX                   ",
"                    @===@@XXX                     ",
"                   @&&&oXX                        ",
"                  @@%&>o                          ",
"                  o%%**,o                         ",
"                  X@%&=;=@                        ",
"                   XXX%%O@X                       ",
"                                                  ",
"                                                  ",
"                                                  ",
"                                                  ",
"                                                  ",
"                                                  ",
"                                                  ",
"                                                  "
};
