/* XPM */
static char *a1sgl_gt3r3[] = {
/* columns rows colors chars-per-pixel */
"50 50 18 1 ",
"  c None",
". c black",
"X c #282828",
"o c #486078",
"O c #A06018",
"+ c #B27E43",
"@ c #888878",
"# c #F89858",
"$ c #F9A268",
"% c #305888",
"& c #3060A8",
"* c #3078E0",
"= c #B0B098",
"- c #F8D088",
"; c #C8C8B0",
": c #FADDAA",
"> c #90B0D8",
", c #D2D2CC",
/* pixels */
"                                                  ",
"                                                  ",
"                                                  ",
"                                                  ",
"                                                  ",
"                                                  ",
"                                                  ",
"                                                  ",
"                                                  ",
"                                                  ",
"                         XXXXX                    ",
"                         XXoo@XXXXXX              ",
"                       Xo@XXoooXXoXo@X            ",
"                        XoXoooooooooo@X           ",
"                         XXoXoooooooXo=X          ",
"                         X..XXXooooXXXoX          ",
"                         X..XX.oooo@=ooX          ",
"                         XooX%Xooo=;,o=X          ",
"                       XXXX..XooXo%&&XX           ",
"                      XXo&&%%@oX+;o+OXX           ",
"                      XoooX%&&&X#$;:;X            ",
"                     XOOO%%XXo&&O$::+X            ",
"                     o@@Oo%X%oo&&+==+             ",
"                    o@ooo%o%%XXX%oXX              ",
"                    X%o%&&**%..XX                 ",
"                   X=%o.XO+O...X                  ",
"                   @%%%%X+$=X..+=@                ",
"                  @@%%&%X#--&=&:$@                ",
"                  o&&%oXX+$>=;*+#O                ",
"                XXXoXXoooXoo@=oX+X                ",
"               @o.oooo@@oo%&XXXXX                 ",
"              o@%%XXoooXX%%*@oX                   ",
"            oo>&&&&%XoXoo@=;=@X                   ",
"           X@%&&%&&%%o@oo@=;;=                    ",
"           Xoo=&Xo&@@==&O++XXX                    ",
"           Xoo+o  oXo;=*#-:oOX                    ",
"           XXXX      X%o+#OOX                     ",
"                     XoX@XXX                      ",
"                    X@%&oX                        ",
"                    oXo%>o                        ",
"                   X@%%%&=OX                      ",
"                   XXX@%%@@X                      ",
"                      oXXXXX                      ",
"                                                  ",
"                                                  ",
"                                                  ",
"                                                  ",
"                                                  ",
"                                                  ",
"                                                  "
};
