/* XPM */
static char *apjd7_d5cgq[] = {
/* columns rows colors chars-per-pixel */
"50 50 12 1 ",
"  c None",
". c #1F1200",
"X c #726355",
"o c #E84600",
"O c #E97800",
"+ c #996E48",
"@ c #807366",
"# c #AF825B",
"$ c #B19174",
"% c #B7B7B7",
"& c #D2D2D2",
"* c #EEEEEE",
/* pixels */
"                                                  ",
"                                                  ",
"                                                  ",
"                                                  ",
"                                                  ",
"                                                  ",
"                                                  ",
"                                                  ",
"                                                  ",
"                         .                        ",
"                        .%.                       ",
"                       .%&%.                      ",
"                      .%&&&%.                     ",
"                      .&&*&&.                     ",
"                      .&&*&&.                     ",
"                      .&&*&&.                     ",
"                      .&&*&&.                     ",
"                      .&&*&&.                     ",
"                      .&&*&&.                     ",
"                      .&&*&&.   O                 ",
"                      .&&*&&.                     ",
"                   O  .&&*&&. O                   ",
"                    OO.&&*&&. O                   ",
"                     OO&&*&&.OO                   ",
"                     OOO&*&&OO                    ",
"                    OOOO&*&&OO                    ",
"                     OoO&oOOOO                    ",
"                     OooOoOOoOO                   ",
"                     OOoOOooOOO                   ",
"                   O  OooooOOO                    ",
"                      OOoooOO                     ",
"                  ...OOOooOoO ...                 ",
"                  .X...........@.                 ",
"                  ..XXX@@@@@@@@..                 ",
"                   .............                  ",
"                      .#$$$$.                     ",
"                      .#$$$$.                     ",
"                      .#$$$$.                     ",
"                      .......                     ",
"                      .+####.                     ",
"                      .......                     ",
"                                                  ",
"                                                  ",
"                                                  ",
"                                                  ",
"                                                  ",
"                                                  ",
"                                                  ",
"                                                  ",
"                                                  "
};
