/* XPM */
static char *avhok_05vh7[] = {
/* columns rows colors chars-per-pixel */
"50 50 12 1 ",
"  c None",
". c #1F1200",
"X c #726355",
"o c #E84600",
"O c #E97800",
"+ c #996E48",
"@ c #807366",
"# c #AF825B",
"$ c #B19174",
"% c #B7B7B7",
"& c #D2D2D2",
"* c #EEEEEE",
/* pixels */
"                                                  ",
"                                                  ",
"                                                  ",
"                                                  ",
"                                                  ",
"                                                  ",
"                                                  ",
"                                                  ",
"                                                  ",
"                         .                        ",
"                        .%.                       ",
"                       .%&%.                      ",
"                      .%&&&%.                     ",
"                      .&&*&&.                     ",
"                      .&&*&&.                     ",
"                      .&&*&&.                     ",
"                      .&&*&&.   O                 ",
"                      OO&*&&.                     ",
"                     OOOO*&&.O                    ",
"                   O  OoO*O&OO                    ",
"                      .OoOO&O                     ",
"                     OOO&OO&o O                   ",
"                     O.O&OOoo O                   ",
"                     OoOOOoO.OO                   ",
"                     OOoooOOOOO                   ",
"                  O  OOOooooOOO o                 ",
"                   O  oOoOoOOO                    ",
"                     OoooooooOO                   ",
"                     OOooOooOOO                   ",
"                    OOOooooOOO                    ",
"                     OOOoooOOO                    ",
"                  ...OOOooOoOO...                 ",
"                  .X...........@.                 ",
"                  ..XXX@@@@@@@@..                 ",
"                   .............                  ",
"                      .#$$$$.                     ",
"                      .#$$$$.                     ",
"                      .#$$$$.                     ",
"                      .......                     ",
"                      .+####.                     ",
"                      .......                     ",
"                                                  ",
"                                                  ",
"                                                  ",
"                                                  ",
"                                                  ",
"                                                  ",
"                                                  ",
"                                                  ",
"                                                  "
};
