/* XPM */
static char *a2u7q_by7zf[] = {
/* columns rows colors chars-per-pixel */
"50 50 17 1 ",
"  c None",
". c gray3",
"X c #391818",
"o c #180829",
"O c #081829",
"+ c #182939",
"@ c #6B2900",
"# c #5A1829",
"$ c #7B2939",
"% c #293942",
"& c #39394A",
"* c gray42",
"= c #8C5A08",
"- c #BD7B4A",
"; c #DE9C7B",
": c #AD9494",
"> c #DECEBD",
/* pixels */
"                                                  ",
"                                                  ",
"                                                  ",
"                                                  ",
"                                  ..OO..          ",
"                                 .OO+++OO.        ",
"                               ..O+++OO+++.       ",
"                              .O.OO++O++.O.       ",
"              ..            ...+..O+O++*:&.       ",
"              O+.         ....O+O.+%#+O**&.       ",
"             .O+%+OOOOO....OOOOO+.O#$O*$#o.       ",
"             .OO+%%%%%+++++%&%OO++O@XO$-:X.       ",
"             .++OOOOO++++++++++++OO###:;-X        ",
"             .OO++++++++++++OO%+OOX#X#--@X        ",
"              .OOOOOOOOOOO.OO+%%OX##X. =.         ",
"               .OOOOOOOO..OOO+%%X@X...            ",
"                ......XXXoOOO+++#@                ",
"                 .OOOOO##OO+O++#                  ",
"                 .OO+%+o#OO++..                   ",
"                  .O++&+O+O..                     ",
"               ....OO+%&+OO.                      ",
"          ..o+..+o..O++&&O+.                      ",
"          .&*::&+XXXXO+%&%.                       ",
"          .+o&*&+X$##X++&%O.                      ",
"          .o&o+O+X$###++%++.                      ",
"          .%&O..+%@Xo%&%+++.                      ",
"          .%%O .+&%X+O%%+OO.                      ",
"          .-.  .+&&+OoXX@#X                       ",
"          .$.  .+%OX###X#O.                       ",
"               .OX##X&O.#O.                       ",
"               .X#..**&.XX.                       ",
"               @X  +>:&.X#.                       ",
"               .  O*>&O..X.                       ",
"                  %:>%   .                        ",
"                 .*:&++                           ",
"                 .&*%&&+                          ",
"                 .+oo%%$#$                        ",
"                  ....X=#@.                       ",
"                                                  ",
"                                                  ",
"                                                  ",
"                                                  ",
"                                                  ",
"                                                  ",
"                                                  ",
"                                                  ",
"                                                  ",
"                                                  ",
"                                                  ",
"                                                  "
};
