/* XPM */
static char *amx9j_366qj[] = {
/* columns rows colors chars-per-pixel */
"50 50 18 1 ",
"  c None",
". c gray3",
"X c #391818",
"o c #180829",
"O c #081829",
"+ c #182939",
"@ c #6B2900",
"# c #5A1829",
"$ c #7B2939",
"% c #293942",
"& c #39394A",
"* c gray42",
"= c #8C5A08",
"- c #BD7B4A",
"; c #DE9C7B",
": c gray61",
"> c #AD9494",
", c #DECEBD",
/* pixels */
"                                                  ",
"                                                  ",
"                                                  ",
"                                     ...          ",
"                                  ..OOOO...       ",
"                                 .OO++++OOO.      ",
"                                ..+O+++O+++O.     ",
"                               .OOO++OO+++OO.     ",
"                              ..OOO+O.+++&&O.     ",
"                 .............OOOO++O.++*>>O.     ",
"              ....OOOOOOOOOOO.OO+O+OOO+O***+.     ",
"            ..O++%%%%%%%%++%%+OO+OOOOO+&*&*O.     ",
"           O+%&&&&&&&&%%+++&&&+O++.OOO+*>=XO.     ",
"           +&&&&&&&%+++++++++++O+++.O.+#-;#..     ",
"           +&&&&%++++++OOOOOOOOOO+OO..O=;;=..     ",
"           +&&++++++OOOOOOOOOOOO.OOo.$XO==# ..    ",
"           O+++OOOOOOOOOOO..OOOOOOO##==.#@        ",
"           O+OOOOOOOOO...OOO++++O.X#X#. .         ",
"           .OOOOO....XXXXOOOOOOOOX#.XX...         ",
"           .OOO... .XXX#XOOOOOO+X#.....           ",
"           .O..   .X#@X#XOOO++++#X.               ",
"            .     .X#$XXOO+++++@..                ",
"                 .oXXXX++++&%+#X.                 ",
"                 .+++X&&&&&&+#X                   ",
"                .o+%&&***&++X#...                 ",
"               ..XX%&&&++++O#XOO.                 ",
"               .##XOOOOO++O#XO+++O                ",
"               X#XOOO++%&%##OO++++.               ",
"              .XXXO%&*&&++XXOOO+++.               ",
"            ..X#&&***&%+O##oOOOO++.               ",
"          .O+X#@***&%++OX###XXoOO+.               ",
"         .O%&&X##&%+++OX#...##XXOO.               ",
"       ..+O&&&&&#%+++OX#.OOO.XX#..                ",
"     ...&>>%&&&%++++OO#XO..XXXo..                 ",
"    .o+*,,,O&%+++++OOX#.o##XXX                    ",
"    ..&,,:&.+++++OOOo#......                      ",
"    .&>&o.. .++OOOOo@....                         ",
"    .+oo%O   .OOOOo#X..                           ",
"     .o%&O    .OOo#X ..                           ",
"     .o%&o..   ..XX  .                            ",
"      .o+oo.    .X                                ",
"      ..$-#=.                                     ",
"        X#XX.                                     ",
"                                                  ",
"                                                  ",
"                                                  ",
"                                                  ",
"                                                  ",
"                                                  ",
"                                                  "
};
