/* XPM */
static char *avnj2_216cv[] = {
/* columns rows colors chars-per-pixel */
"50 50 18 1 ",
"  c None",
". c gray3",
"X c #391818",
"o c #180829",
"O c #081829",
"+ c #182939",
"@ c #6B2900",
"# c #5A1829",
"$ c #7B2939",
"% c #293942",
"& c #39394A",
"* c gray42",
"= c #8C5A08",
"- c #BD7B4A",
"; c #DE9C7B",
": c gray61",
"> c #AD9494",
", c #DECEBD",
/* pixels */
"                                                  ",
"                                                  ",
"                                                  ",
"                                                  ",
"                                   .....          ",
"                                 ...+++O..        ",
"                              ...O+++++++OO       ",
"                             .OO.O++OO+++OO       ",
"                            ..OOOO+OO+++**O       ",
"                           ..OOO.OOOO++*:*O       ",
"                         .....OO+OO.++#&**O       ",
"                      ..OOO+%+OO+OO.+O-=$X.       ",
"                    .O+%%%%+&&+O++O.O@--;#        ",
"                  ..+%&%%++++++OOOOX.=;;-=        ",
"                .OO+&&%++OOOOO++OO##.=--$#        ",
"                O+%&&++OO.O.O+&%OX#XXX X          ",
"        ..    .O+&&&++OO...OO+&+.@X..             ",
"       ..+.   .+&&&++OO..XoOO++O#@.               ",
"      O+>*&   .O&&++OO..##oOO+O#                  ",
"     O%&*,>&.. .%%+OO.OOX#O.OO#$                  ",
"    O&&&o*,>%OOOO+OO.OO.Oo+O..                    ",
"   O%&&oo&*:&O++O.O.OO+%OoXo..                    ",
"   =*+o..O&&OOOO.O.OOO+&&%XX.                     ",
"   @$.    .OOOOOOOOOoO++&&&%XX                    ",
"   .       ..O.OOOOoXXO++&&&&X                    ",
"           .X.O.O.XX#@Xo++&&%#X                   ",
"          .XXXX...XX#####X&&+#X                   ",
"          .XXXXXXXXXX##X++%%O#X                   ",
"         .XXXXXX....X#X++O++oX.                   ",
"        .XX.....    .o+OO+%OX#.                   ",
"       ....          .OOO%+OX&O                   ",
"                      .O++OX#:*.                  ",
"                      .++OXX*,*.                  ",
"                      O+O.#.:,&o.                 ",
"                     .O..  .:>+&o....             ",
"                           .*:o&&%#-.             ",
"                          .o%&o%%#=#.             ",
"                           ..o.....               ",
"                                                  ",
"                                                  ",
"                                                  ",
"                                                  ",
"                                                  ",
"                                                  ",
"                                                  ",
"                                                  ",
"                                                  ",
"                                                  ",
"                                                  ",
"                                                  "
};
