/* XPM */
static char *aao03_64oeg[] = {
/* columns rows colors chars-per-pixel */
"50 50 18 1 ",
"  c None",
". c gray3",
"X c #391818",
"o c #180829",
"O c #081829",
"+ c #182939",
"@ c #6B2900",
"# c #5A1829",
"$ c #7B2939",
"% c #293942",
"& c #39394A",
"* c gray42",
"= c #8C5A08",
"- c #BD7B4A",
"; c #DE9C7B",
": c gray61",
"> c #AD9494",
", c #DECEBD",
/* pixels */
"                                                  ",
"                                                  ",
"                                                  ",
"                                    .....         ",
"                                  ..O+++...       ",
"                                 .++++++++O..     ",
"                              ...O+O+++O++++.     ",
"                             ..O.OOO++.+++.O.     ",
"                            ...+OOO++OO++*:&.     ",
"                         ....OO+O.O++O++&:*&.     ",
"                   ..........O++O.O+@#++%&**.     ",
"                .OO++++++%&&&O+++O.O=@+%>$X..     ",
"              OO+%&&&%%%++%%%+O+++OO#X+X--=X.     ",
"             O+%&&&%%++++++++OO+++O.OOO=>;-X.     ",
"            .+&&&%+++++OOOO...OOOOX#...;;;=X      ",
"           .+&&%++++OOOO...OOO+O..@XX..=--X.      ",
"           .+&%+++OOOO..OOOO+++OX#X##X.  X.       ",
"           .+%++OOOO.XXXOO+++++X#X###X            ",
"           .+++OOOO.X##XO+++++OXX..XXX            ",
"           .O+OOOO.o###X+++++#...   ..            ",
"            .OOOO.Oo##XO+%++#X.                   ",
"            ..OO.OOOXoO+&%+O$                     ",
"             .OO.OO+ooO+%+o@                      ",
"            ..O.OOO%+OO&%O#                       ",
"           .....oOO%+OO&+X#                       ",
"          ..&&O.XXO%%OO&O#X.                      ",
"         .oo+&&O@#X%&+O+XXo.                      ",
"         .%&%o+OX$X%&+O+##OO.                     ",
"        .o&&%.+OXXo%&%OO##OO.                     ",
"        $#&%....X#X+%&+X#OOOO.                    ",
"       .==&o.  ..X##%&+X#OOOO.                    ",
"       .@@+.    .o##&&OX#OOOO.                    ",
"       ....     ..O++&.#oOOO.                     ",
"               .&OOO++.$OO..                      ",
"               O&&OO++.$O..                       ",
"              .&>*%.++.$.                         ",
"              +>,>&.O+.$                          ",
"             .&,,,&..+.$                          ",
"             &>,,*.  ..$                          ",
"            O:,*+oO   .$                          ",
"            +:*+&&%O   $                          ",
"            .%%+&&+o..                            ",
"            ...o++@-=-X                           ",
"               ...X#X#.                           ",
"                                                  ",
"                                                  ",
"                                                  ",
"                                                  ",
"                                                  ",
"                                                  "
};
