/* XPM */
static char *achn5_i0hgj[] = {
/* columns rows colors chars-per-pixel */
"50 50 18 1 ",
"  c None",
". c gray3",
"X c #391818",
"o c #180829",
"O c #081829",
"+ c #182939",
"@ c #6B2900",
"# c #5A1829",
"$ c #7B2939",
"% c #293942",
"& c #39394A",
"* c gray42",
"= c #8C5A08",
"- c #BD7B4A",
"; c #DE9C7B",
": c gray61",
"> c #AD9494",
", c #DECEBD",
/* pixels */
"                                                  ",
"                                                  ",
"                                                  ",
"                                                  ",
"                                   ......         ",
"                               ...OO+++OOO        ",
"                               ..OO+++O+++.       ",
"                              O+OO++OO++OO.       ",
"                             .O+OO+O.+++*&.       ",
"                           ...O+.OOOO+O>:&.       ",
"                         ..OOO.++OOOO++&*:O       ",
"            .       ......OOOO.O+.OOO+**$X.       ",
"            ..    ..OO....O+++OO++OO.+#->XO.      ",
"            OO.  .OOO...OO++&+OO+OO.Xo=;-=..      ",
"            .+%++++++OOOOOO++OO++OO#==.=$# .      ",
"            .O+++%&&&&&&%++OOO+&+O#X#=.X#         ",
"            .OOO++++++++++OOOO+&+#X#X. .          ",
"             O++%%+++++OOOOOO++%o#....            ",
"             .OOOOOOOOOOOOoOO++O#X.               ",
"              .OOOOOOOOO..X+OOO#                  ",
"              ..OOOOOOO.ooo+O..                   ",
"              .OO....OO++..OO                     ",
"             O+OOOOOO+++%+.                       ",
"            O++OOOOOO+++&&+.                      ",
"          ..%%OO+...OO++&&&O.                     ",
"         .O%&%OOo+XX.OO++&&+.                     ",
"        O+%%++OOO&X#XoOO+%&+O.                    ",
"       .OOOOOOO.oo.#X#++++%+O.                    ",
"       .+&%OO..+&%.XXXXOO++X#                     ",
"      .+:>*%OX.%&+.OOO++++##.                     ",
"     .+*,:*+###=+ .O+++O##XX                      ",
"     o*,:+..##X=. .++XX@X.                        ",
"     %:&o. .#X.. .X####.                          ",
"     .oo&O .#.   .XXX.                            ",
"     .o&&o  .                                     ",
"      .o+o. .                                     ",
"      ..=-=$                                      ",
"        XXX.                                      ",
"                                                  ",
"                                                  ",
"                                                  ",
"                                                  ",
"                                                  ",
"                                                  ",
"                                                  ",
"                                                  ",
"                                                  ",
"                                                  ",
"                                                  ",
"                                                  "
};
