/* XPM */
static char *aiztp_g5dt2[] = {
/* columns rows colors chars-per-pixel */
"50 50 18 1 ",
"  c None",
". c gray3",
"X c #391818",
"o c #180829",
"O c #081829",
"+ c #182939",
"@ c #6B2900",
"# c #5A1829",
"$ c #7B2939",
"% c #293942",
"& c #39394A",
"* c gray42",
"= c #8C5A08",
"- c #BD7B4A",
"; c #DE9C7B",
": c gray61",
"> c #AD9494",
", c #DECEBD",
/* pixels */
"                                                  ",
"                                                  ",
"                                      ....        ",
"                                    ...OO...      ",
"                                   .OOO++OO..     ",
"                                  .O+++O++++O.    ",
"                ..              ...OO+OO+++OO.    ",
"                OO             ..OOOOOO++++oO.    ",
"                +%O           ...+OOOOO++%>:%.    ",
"               O&&+..         .OO+OOO.+++&>*+.    ",
"               O&&&+O...   ..O+OO++OO.++#*&*&.    ",
"              .+&&&&%OOO...O+%+.O++O..+O=,$#.     ",
"              .%&&&&&%%+OO+%&%OOO+++O.OX->>=X     ",
"              .+&&&&&&&%%++%%+OOOO++O.O$;;;-      ",
"              .+++++++++++++OOOOOOOOO..$;;-=      ",
"              .O++++++++++OOOO.OOO.O#X.$--=$      ",
"              ..O++++++++OOO..OOOO.X#... X        ",
"       .O       .OOOOOOOO...OO+OO.X#X#.           ",
"      .%+.       ......XXXoO++OO.#@XX..           ",
"      O&*&         .X#X#XoOOOOO.X#...             ",
"     .%%:>:.      .oX#XXoOOOOOX##.                ",
"     o&%%,,*+.....O++++%%%%++o##X.                ",
"    .+&&.*,>+OX##X%&&%+&&+++#@X.                  ",
"    o&&o+*:*O+###X++++O++++X#X                    ",
"   .-&&..&*%Oo#XXOOO++++++O#o.                    ",
"   .=&O  .&+Oo##o+++%%++++#O++.                   ",
"   .@+    O+Oo#X+%&&&+++o#XO+&+.                  ",
"   ...    .O++XX&&&%+++O##+O+%%O                  ",
"          .+&&#&&&%+++OX#X#O++%O.                 ",
"          .+&&#%%+++OOX#..#O+%%O.                 ",
"          .O%%+++OOOOX#XXOX#++&O.                 ",
"          .OOOOOOOO.##XXX..@OO+OO.                ",
"          .OOOOOOOo@XX.XXX.@OOOOO.                ",
"          .OOOO..##..  ..X.@OOOO.                 ",
"         .OOXXX@@X.      ..@OOO&O                 ",
"        XXXX@@@X..        .#OO&*%                 ",
"        #@@#X..            #.+*>*.                ",
"        ....               X..:,*.                ",
"                           . .*,*..               ",
"                             .*>&%O               ",
"                              *:+&&....           ",
"                              *:o&&%o-#           ",
"                              %&o&&X-=.           ",
"                              O+oooo..            ",
"                              ......              ",
"                                                  ",
"                                                  ",
"                                                  ",
"                                                  ",
"                                                  "
};
