/* XPM */
static char *_85755753bc943d88af8ab0fe7bfd41b2ItxGwjgiyKT6UuJ[] = {
/* columns rows colors chars-per-pixel */
"50 50 21 1 ",
"  c None",
". c #081018",
"X c #221C1C",
"o c #3E3333",
"O c #561010",
"+ c #283040",
"@ c #635454",
"# c #6A5959",
"$ c #414E67",
"% c gray38",
"& c #971C1C",
"* c #D82C2C",
"= c #E77A7A",
"- c #DD9B00",
"; c #B08050",
": c #D8A870",
"> c gray66",
", c #FFE19D",
"< c #CDCDCD",
"1 c #F8E0C8",
"2 c #E2E2E2",
/* pixels */
"                       .X++.+++                   ",
"                      X+X+++++++                  ",
"                       X+++++++++                 ",
"      -;             .++++++++++++                ",
"      ;<<             .X+++++++++X+               ",
"      +:<<            ++++.++++@o.X               ",
"      + >2<           XXX.X+++o;;.X               ",
"      +  ><<         .X..@X+++;1:X.               ",
"       +  >2<        ....;XX++#<;O..              ",
"       +   >2<       ..XX;.++o:1:o.               ",
"       ++   ><<      ..OOooX+@:,:o.               ",
"        +    >2<@++++XXO&O&.+@::&O.               ",
"        +     ><>;,;&&&*&*&X+@;@&&O               ",
"         +     %:,:;*****&&&+o;@***o  ..          ",
"          +    #::-&*****OX>Xo;OO**O @;>          ",
"           +  X>,:-O&**&ooo&&&&&XOOO.#:;          ",
"            ++X>,:@&&XooooX&&**&OooO;;;.          ",
"             +X>:;&&Oo@XXoXO&**&&o@X&::.          ",
"              .#-XXXo@oXXXO&****&ooo;::.          ",
"               +;Xo@@@XXX&&*=***&XXoo#o           ",
"               ..ooo@@XX&&*******Oo@#@X           ",
"               .o@o.ooX&&********O@##@X           ",
"              .Xo@@XXX&&*********Oo@@XX           ",
"             #>;;@oX.o&*********&;o+X             ",
"    .........;;;>>%%+XO*********&-:$+             ",
"    +++++++++##<<<<<oO&&&******&;-,,;.            ",
"    %>>>%....##@;;>>oO**********;:<<>>>>>..       ",
"    %>2<>       XX  O&&&*******&O<<<<<<<>++X      ",
"    %><<>          .&**&OOOOOOOO&;::,:%>>.X+      ",
"    %><<>          .O&&&X&&***;OX&;,,:+    +      ",
"    %>>2>          O&&&OX&&&**&OX&&-::+    +      ",
"    $>>><>        XO&&&XXOO&&&@OXO*&-;+   +       ",
"     %>>2>        OO&*XXX&*****OXXO&;+.  ++       ",
"      $><<>       OO&OooXOO&&*&OXXXO&X+++         ",
"       %><>      O&*&Xo@oO&&**&OXo@oOO            ",
"        %><>    X&**oo@#oO&****Ooo#@o&            ",
"         %><>   O**&Xo##oXOO&&OXXo##o..           ",
"          $>>>   .XXo@##oX&&***O.oo@o..           ",
"           $%>> .ooo@###@X&****O.oo@o..           ",
"             %>.XXo@####@...... .oooXX.           ",
"               .ooXX@@##X       .oooX...          ",
"               .oooX.o##.       XooX              ",
"               o@oX.  ..        X@X               ",
"              .o@X             XooX               ",
"              X@o.             o@o.               ",
"             ;::o             @;X#ooo             ",
"            o;>;o             ;:X:;;;@            ",
"           o>::>X             o@X@o@Oo.           ",
"           @;;;#               .......            ",
"           .....                                  "
};
