/* XPM */
static char *a0kid_sf6ry[] = {
/* columns rows colors chars-per-pixel */
"50 50 20 1 ",
"  c None",
". c #081018",
"X c #221C1C",
"o c #3E3333",
"O c #561010",
"+ c #283040",
"@ c #635454",
"# c #6A5959",
"$ c #414E67",
"% c gray38",
"& c #971C1C",
"* c #D82C2C",
"= c #DD9B00",
"- c #B08050",
"; c #D8A870",
": c gray66",
"> c #FFE19D",
", c #CDCDCD",
"< c #F8E0C8",
"1 c #E2E2E2",
/* pixels */
"                                                  ",
"                                                  ",
"                         .   .X+                  ",
"                       X++X.+++++                 ",
"        =              +X+++XX+++++               ",
"        ;;           ..X+++++++++++               ",
"        -,,          ..+X+++++++++.               ",
"        +:1,          .+++XX++++@#o               ",
"        + :1,        .+X+XX++++@-;#.              ",
"        ++ :1,      .X.XX.X.+++->;O+              ",
"         +  :1,     .......+++O-;-&               ",
"         +   :,,    .......X++#;<;-               ",
"          +   :1, X+....XO..X+-;>;@               ",
"          +    :,:##.XX.X&X.+o-;;#O.              ",
"           +    ::;=oXOOO&&O+-#-#&&X              ",
"           +    X--@+&&***&O+-;:#&*-              ",
"            +  .+X++o&****&X@&&-#O**&    .        ",
"             + .+oX.O****&.X&&&&*O&&&X  @;        ",
"              +X@=O&&O&&XoooO&&*&&XooXX.-;        ",
"               .$OOOOooo@ooXOO**&&X@#XX-#-        ",
"                X@ooo@#@XoXO&*****XoooX;;-        ",
"     XX         .oooo##oXXO&******oXooo;;:        ",
"    .++++X..  ...o@oXo@XXO&*******&oo@o##.        ",
"    $:%%%$+++o:--o@oXooXO&********&o@##oX         ",
"    $:,,:@..+---::%%oXXO&*********&Xo@oX          ",
"    $::1:    ##,,,,1:%X&&*********--@+            ",
"    $::1:    ##@--::,%XO&*********-;;-+           ",
"     %:,,:      XX   XO*&&******&#:,>;%           ",
"     %::,,:          .O&*********#,,,,,,:%..      ",
"      %:,,:         .O&O&&******&#=;::::,%++      ",
"       %:1:       X&&O**&OOOOOOOOO-;;>>$%%X+      ",
"       %::,:    XOO&**&&XXOO&**&&XX-=;>+. ++      ",
"        %:,,:  .&**&&*OXXXo&&&**&XoXO=;+. +       ",
"         %%,: .O&&&XX.XXoooOOO&&O&ooXOo. +        ",
"           %:%&*&XXXXXXXoooO&&****oo@OOOo         ",
"            %O&*OXXXXXXooooXOOO&&&Ooo@o&O         ",
"             .XOXXXXXXooooooXXO&*&-Ooo@X          ",
"              .XXXXXoooo@@@oo.OO&&&OXooo..        ",
"               .XXoooo@@###@o.XX&&&&-XoXXX        ",
"                ..o#########oX.XX.XXXXXXX.        ",
"                .XXXoo@@####oX ...XXoX...         ",
"                XooXXXoo####@o. .XXoX..           ",
"               .o@ooX .XoooooX. .Xoo.             ",
"               .@@XX    ........XooX              ",
"              .o@X             XXXX               ",
"             o-,-X            @-X#ooo             ",
"            o@::-.            -;X;---@            ",
"           o;;;:X             o@X@o@Oo.           ",
"           @---#               .......            ",
"           .....                                  "
};
