/* XPM */
static char *b82f7088c9c34b7ad94b72e28f18e332KNRgZokyF58ej84p[] = {
/* columns rows colors chars-per-pixel */
"50 50 20 1 ",
"  c None",
". c #081018",
"X c #221C1C",
"o c #3E3333",
"O c #561010",
"+ c #283040",
"@ c #635454",
"# c #6A5959",
"$ c #414E67",
"% c gray38",
"& c #971C1C",
"* c #D82C2C",
"= c #DD9B00",
"- c #B08050",
"; c #D8A870",
": c gray66",
"> c #FFE19D",
", c #CDCDCD",
"< c #F8E0C8",
"1 c #E2E2E2",
/* pixels */
"                                                  ",
"                           .+ X.                  ",
"                        X++.++++.                 ",
"                      XXX+++++++++                ",
"       ==              +++++++++++                ",
"       =;:            .X+++++++++++               ",
"      +-,,:           .+++++++++o..               ",
"       +:,,:          ++++X++++#-o+               ",
"       + :,,:         X++.o+++#;<#X               ",
"       +  :,,:       .X..X-.++O;;&.               ",
"        +  :,,:      ...XXo+++-;>-.               ",
"        +   :,,:     ...OO.X+@;<<-.               ",
"        +    :,,: +++XXXO&X.+@;;;#X               ",
"         +    :,,%;--&&&&*&o+o;;O*O               ",
"         +     ::;==&****&&O+-##O**&              ",
"          +    .%;=-&*****OX+-;-O&**.   .         ",
"           +   +;;-X&&**&XoXO&&&&O&&O o-,.        ",
"            +  +;-oO&&&&o@oo****&ooXXXo;:         ",
"             +++&XO&Ooo@oXoXO&&&&Oo@o#;-@         ",
"              +X+XOOo@@oXXXO&****O@@X@;;@         ",
"               .o#Xo##oXXX&&*****OXXo#;;#         ",
"               .oOoo@#oXX&&******&Xooo@o.         ",
"                o@@oooXO&&********Xo@#@X          ",
"               #@@@oXXX&&*********Xo#@X           ",
"    .+++++....:;--#X+.O&*********&#Xo.            ",
"    +@%%%+++++-%:::::.O&*********&=#+             ",
"    $:,,: ....--:,,,:X&&&*******&-;>;+            ",
"    $::1:     oXo-@ oX&***&&&&&&&:,,,%%::%.       ",
"    $::1:        .  OOO&********&:,,,,,,,%++      ",
"    $::,,:         .&*&&O&&&&&&OXO==;::::%.+      ",
"     %::,,:        O&&&*X.OO&&&&XOO->>-.   +      ",
"      %:,,:       XO&**OXX&&***&XXO&=;-.   +      ",
"       %:,:      X&&&O&OoXOO&&&OoooO@=#.  +       ",
"       %::,:    XO&&&OXoooO&***-&o@oXOX. +        ",
"        %:,::  X&&&XXXooooO&&***&Xo@oXX++         ",
"         %%:: X&**OXXooo#@XOO&*&&ooooo.           ",
"           %::o**&XXooo##@.o&&**&ooo@oX.          ",
"            %:%.XXXooo###o.XOO&&&&XoooX.          ",
"             %:XoXooo@###o.XXO&*&&OXoXXX.         ",
"                Xo@@@####o..XXXX.XXXXXXX.         ",
"                XXX@@####o. .....XXoX...          ",
"               .ooXXXo###o.     .Xoo.             ",
"               o@oo.  .....     XXo.              ",
"               o@oX            .XXX               ",
"              X@o.             XXX.               ",
"             -;;o             @-X#ooo             ",
"            o-:-o             -;X;---@            ",
"           o;;;:X             o@X@o@Oo.           ",
"           @---#               .......            ",
"           .....                                  "
};
