/* XPM */
static char *_ed9a5ca79a84b97eeed159455a4d22158KqVm00yEuEdiY7[] = {
/* columns rows colors chars-per-pixel */
"50 50 20 1 ",
"  c None",
". c #081018",
"X c #221C1C",
"o c #3E3333",
"O c #561010",
"+ c #283040",
"@ c #635454",
"# c #6A5959",
"$ c #414E67",
"% c gray38",
"& c #971C1C",
"* c #D82C2C",
"= c #DD9B00",
"- c #B08050",
"; c #D8A870",
": c gray66",
"> c #FFE19D",
", c #CDCDCD",
"< c #F8E0C8",
"1 c #E2E2E2",
/* pixels */
"                                                  ",
"                           .+ X                   ",
"                        X++.++X+.                 ",
"        ==            XXX+++++++++                ",
"       #;<:            +++++++++++                ",
"       +-,,:          .X+++++++++++               ",
"        +:,,:         ..++X+++++oX.               ",
"        + :,,:        .++.+++++#--+               ",
"        +  :,,:      .+++X+X++#;<-X               ",
"        +   :,,:     .X....+++&;;&.               ",
"         +   :,,:   ......+++o-;>-.               ",
"         +    :,,%X++...XX..+@;<<-.               ",
"         ++    :,,-;#o..OO.X+-;;;OX               ",
"          +     %:;;=OXOO&X+@#;;O&X               ",
"           +    o;;=@&&&*&&+---#O*&               ",
"            +  .%>=-O*****Xo--;-O**-    .         ",
"             ++X%;-X*****OXX&&&&&&*&O o-,.        ",
"               X@-oX&&*&OooO****&oOOOXo;:         ",
"               .+X.O&OooXXoXO&&&&Oooo#;-@         ",
"               .XX&&O@@oXXXO&****O@@X@;;@         ",
"                .XXXo#oXXX&&*****OXXo#;;#         ",
"                 Xoo@#oXX&&******&Xooo@o.         ",
"                o@@oooXO&&********Xo@#@X          ",
"               #@@@oXXX&&*********Xo#@X           ",
"    .+++++....-;--#X..O&*********&-Xo+.           ",
"    +@%%%+++++-%:::::.O&*********&=>>;+           ",
"    $:,,: ....--:,,,:X&&&*******&-=>>>#.          ",
"    $::1:     oXo-@ oX&***&&&&&&&:,,,>:%::@.      ",
"    $::1:        .  OOO&********&:,,,,,,,,%+X     ",
"    $::,,:         .&*&&O&&&&&&OXO==>,::::@.+     ",
"     %::,,:        O&&&*X.OO&&&&XOO=;>>+.   +     ",
"      %:,,:       XO&**OXX&&***&XXO&=;>+.  +      ",
"       %:,:      X&&&O&OoXOO&&&OoooO@=;+.  +      ",
"       %::,:    XO&&&OXoooO&***-&o@oXO+.  +       ",
"        %:,::  X&&&XXXooooO&&***&Xo@oX.+++        ",
"         %%:: X&**OXXooo#@XOO&*&&ooooo.           ",
"           %::o**&XXooo##@.o&&**&ooo@oX.          ",
"            %:%.XXXooo###o.XOO&&&&XoooX.          ",
"             %:XoXooo@###o.XXO&*&&OXoXXX.         ",
"                Xo@@@####o..XXXX.XXXXXXX..        ",
"                XXX@@####o. .....XXoX...          ",
"               .ooXXXo###o.     .Xoo.             ",
"               o@oo.  .....     XXo.              ",
"               o@oX            .XXX               ",
"              X@o.             XXX.               ",
"             -;;o             @-X#ooo             ",
"            o-:-o             -;X;---@            ",
"           o;;;:X             o@X@o@Oo.           ",
"           @---#               .......            ",
"           .....                                  "
};
